<?xml version="1.0" encoding="UTF-8"?>
<svg xmlns="http://www.w3.org/2000/svg" xmlns:xlink="http://www.w3.org/1999/xlink" width="67.6067pt" height="69.2684pt" viewBox="0 0 67.6067 69.2684" version="1.2">
<defs>
<clipPath id="clip1">
  <path d="M 58 28 L 67.058594 28 L 67.058594 38 L 58 38 Z M 58 28 "/>
</clipPath>
<clipPath id="clip2">
  <path d="M 0.160156 19 L 7 19 L 7 27 L 0.160156 27 Z M 0.160156 19 "/>
</clipPath>
<clipPath id="clip3">
  <path d="M 3 59 L 13 59 L 13 68.542969 L 3 68.542969 Z M 3 59 "/>
</clipPath>
</defs>
<g id="surface1">
<path style="fill-rule:evenodd;fill:rgb(73.33374%,74.118042%,75.294495%);fill-opacity:1;stroke-width:0.5;stroke-linecap:butt;stroke-linejoin:miter;stroke:rgb(13.725281%,12.156677%,12.548828%);stroke-opacity:1;stroke-miterlimit:2.613126;" d="M 26.945876 44.003074 C 32.081582 44.003074 36.246202 39.838454 36.246202 34.702747 C 36.246202 29.567041 32.081582 25.402421 26.945876 25.402421 C 21.810169 25.402421 17.645549 29.567041 17.645549 34.702747 C 17.645549 39.838454 21.810169 44.003074 26.945876 44.003074 Z M 26.945876 44.003074 " transform="matrix(0.989549,0,0,-0.989549,1.148247,67.554898)"/>
<path style="fill-rule:nonzero;fill:rgb(92.941284%,10.980225%,14.117432%);fill-opacity:1;stroke-width:0.5;stroke-linecap:butt;stroke-linejoin:miter;stroke:rgb(92.941284%,10.980225%,14.117432%);stroke-opacity:1;stroke-miterlimit:2.613126;" d="M 26.002422 29.677571 L 27.885382 29.677571 L 27.885382 33.763241 L 31.971052 33.763241 L 31.971052 35.646201 L 27.885382 35.646201 L 27.885382 39.727924 L 26.002422 39.727924 L 26.002422 35.646201 L 21.920699 35.646201 L 21.920699 33.763241 L 26.002422 33.763241 Z M 26.002422 29.677571 " transform="matrix(0.989549,0,0,-0.989549,1.148247,67.554898)"/>
<path style="fill:none;stroke-width:0.4997;stroke-linecap:butt;stroke-linejoin:miter;stroke:rgb(0%,0%,0%);stroke-opacity:1;stroke-miterlimit:2.613126;" d="M 36.246202 34.702747 C 36.877804 34.694852 37.963368 34.205361 38.425226 34.93565 C 38.883137 35.669886 38.772607 37.608112 39.759484 37.513372 C 41.583232 37.339682 42.499054 32.22766 41.164796 32.207923 C 39.337101 32.18029 40.592408 37.525215 42.424051 37.5489 C 44.251747 37.576532 45.159673 32.263188 43.829364 32.24345 C 41.99772 32.219765 43.253028 37.560742 45.084671 37.588375 C 46.912367 37.61206 47.820293 32.302663 46.489983 32.282925 C 44.662288 32.255293 45.917595 37.600217 47.745291 37.623902 C 49.576934 37.651535 50.484861 32.33819 49.150603 32.318453 C 47.322907 32.294768 48.578215 37.635745 50.409858 37.663378 C 52.237554 37.687063 53.14548 32.377666 51.81517 32.357928 C 49.983527 32.330295 51.242782 37.67522 53.070478 37.698905 C 54.898173 37.726538 55.8061 32.413193 54.47579 32.393456 C 52.648094 32.369771 53.915244 37.513372 55.731097 37.73838 C 56.717974 37.860753 56.465334 34.702747 57.511423 34.68301 L 59.654919 34.65143 " transform="matrix(0.989549,0,0,-0.989549,1.148247,67.554898)"/>
<path style=" stroke:none;fill-rule:evenodd;fill:rgb(13.725281%,12.156677%,12.548828%);fill-opacity:1;" d="M 63 30.445312 C 64.558594 30.445312 65.820312 31.707031 65.820312 33.265625 C 65.820312 34.824219 64.558594 36.085938 63 36.085938 C 61.441406 36.085938 60.179688 34.824219 60.179688 33.265625 C 60.179688 31.707031 61.441406 30.445312 63 30.445312 Z M 63 30.445312 "/>
<g clip-path="url(#clip1)" clip-rule="nonzero">
<path style="fill:none;stroke-width:0.4997;stroke-linecap:butt;stroke-linejoin:miter;stroke:rgb(13.725281%,12.156677%,12.548828%);stroke-opacity:1;stroke-miterlimit:2.613126;" d="M 62.50502 37.50153 C 64.080075 37.50153 65.35512 36.226485 65.35512 34.65143 C 65.35512 33.076374 64.080075 31.80133 62.50502 31.80133 C 60.929964 31.80133 59.654919 33.076374 59.654919 34.65143 C 59.654919 36.226485 60.929964 37.50153 62.50502 37.50153 Z M 62.50502 37.50153 " transform="matrix(0.989549,0,0,-0.989549,1.148247,67.554898)"/>
</g>
<path style="fill:none;stroke-width:0.4997;stroke-linecap:butt;stroke-linejoin:miter;stroke:rgb(0%,0%,0%);stroke-opacity:1;stroke-miterlimit:2.613126;" d="M 33.222412 41.563515 C 33.569793 41.804312 34.347452 41.962213 34.311924 42.538549 C 34.276396 43.110937 33.46321 44.113604 34.031651 44.449142 C 35.085635 45.061006 37.568617 42.656974 36.854119 42.128008 C 35.875137 41.401667 34.477719 44.776785 35.456701 45.503127 C 36.435683 46.229468 38.993667 43.710958 38.279169 43.181992 C 37.300187 42.455651 35.902769 45.834717 36.881751 46.561059 C 37.860733 47.283452 40.41477 44.764943 39.704219 44.239924 C 38.725237 43.513583 37.327819 46.888702 38.306801 47.615043 C 39.285783 48.341384 41.83982 45.822875 41.129269 45.293909 C 40.150287 44.567567 38.752869 47.946634 39.731851 48.669027 C 40.710833 49.395369 43.26487 46.876859 42.554319 46.347893 C 41.575337 45.625499 40.173972 49.000618 41.152954 49.726959 C 42.131936 50.449353 44.68992 47.930843 43.979369 47.405825 C 43.000387 46.679484 41.685867 49.951967 42.578004 50.780944 C 43.063547 51.230959 44.157007 49.423001 44.729395 49.821699 L 45.897857 50.638833 " transform="matrix(0.989549,0,0,-0.989549,1.148247,67.554898)"/>
<path style="fill-rule:evenodd;fill:rgb(13.725281%,12.156677%,12.548828%);fill-opacity:1;stroke-width:0.4997;stroke-linecap:butt;stroke-linejoin:miter;stroke:rgb(13.725281%,12.156677%,12.548828%);stroke-opacity:1;stroke-miterlimit:2.613126;" d="M 46.332083 53.287611 C 47.180797 53.899474 48.368997 53.706046 48.98086 52.853385 C 49.592724 52.004671 49.399296 50.816471 48.550582 50.204608 C 47.697921 49.592744 46.509721 49.786172 45.897857 50.638833 C 45.285994 51.487547 45.479422 52.675747 46.332083 53.287611 Z M 46.332083 53.287611 " transform="matrix(0.989549,0,0,-0.989549,1.148247,67.554898)"/>
<path style="fill:none;stroke-width:0.4997;stroke-linecap:butt;stroke-linejoin:miter;stroke:rgb(0%,0%,0%);stroke-opacity:1;stroke-miterlimit:2.613126;" d="M 28.252501 43.912281 C 28.438033 44.291242 29.04595 44.80047 28.738044 45.289961 C 28.430138 45.775505 27.237991 46.264995 27.577477 46.829489 C 28.205131 47.875578 31.540774 46.955809 31.169708 46.150518 C 30.656532 45.045216 27.81038 47.33477 28.319608 48.440072 C 28.832784 49.545374 32.282905 48.562445 31.91184 47.761101 C 31.398664 46.651851 28.552511 48.945353 29.06174 50.050655 C 29.574915 51.155957 33.025037 50.173028 32.653971 49.367736 C 32.144743 48.262434 29.294642 50.551988 29.807818 51.661238 C 30.317047 52.76654 33.767168 51.78361 33.396102 50.978319 C 32.886874 49.873017 30.040721 52.162571 30.54995 53.267873 C 31.059178 54.377123 34.513247 53.394193 34.138234 52.588902 C 33.629005 51.4836 30.782853 53.773154 31.292081 54.878456 C 31.805257 55.983758 35.255378 55.000829 34.884313 54.195537 C 34.371137 53.090235 31.647357 55.332419 32.034212 56.489039 C 32.247378 57.112745 34.071126 56.054813 34.382979 56.678519 L 35.018528 57.957511 " transform="matrix(0.989549,0,0,-0.989549,1.148247,67.554898)"/>
<path style="fill-rule:evenodd;fill:rgb(13.725281%,12.156677%,12.548828%);fill-opacity:1;stroke-width:0.4997;stroke-linecap:butt;stroke-linejoin:miter;stroke:rgb(13.725281%,12.156677%,12.548828%);stroke-opacity:1;stroke-miterlimit:2.613126;" d="M 34.126391 60.487864 C 34.580354 61.435265 35.713289 61.833963 36.656743 61.38 C 37.604145 60.926037 38.002843 59.793102 37.54888 58.849648 C 37.098864 57.902246 35.961982 57.503548 35.018528 57.953564 C 34.071126 58.407527 33.672428 59.544409 34.126391 60.487864 Z M 34.126391 60.487864 " transform="matrix(0.989549,0,0,-0.989549,1.148247,67.554898)"/>
<path style="fill:none;stroke-width:0.4997;stroke-linecap:butt;stroke-linejoin:miter;stroke:rgb(0%,0%,0%);stroke-opacity:1;stroke-miterlimit:2.613126;" d="M 29.634128 25.797171 C 29.788081 25.406368 29.764396 24.612919 30.332837 24.514231 C 30.89733 24.419491 32.061845 24.97609 32.255273 24.344489 C 32.610548 23.179974 29.693341 21.320698 29.34596 22.133885 C 28.864364 23.254977 32.472386 23.83526 32.953982 22.714168 C 33.43163 21.597024 30.392049 19.690378 30.040721 20.507512 C 29.563073 21.624656 33.171094 22.20494 33.648743 21.083848 C 34.130339 19.966703 31.086811 18.060057 30.73943 18.877191 C 30.257834 19.994336 33.869803 20.574619 34.347452 19.457475 C 34.8251 18.336383 31.785519 16.429737 31.438139 17.246871 C 30.956543 18.367963 34.564564 18.944299 35.04616 17.827154 C 35.523809 16.706062 32.484228 14.803364 32.1329 15.61655 C 31.655252 16.737642 35.263273 17.317926 35.740922 16.196834 C 36.222517 15.075742 33.178989 13.173044 32.831609 13.98623 C 32.350013 15.107322 35.839609 15.628393 36.43963 14.566514 C 36.763326 13.990178 34.754045 13.346734 35.010633 12.699343 L 35.531704 11.369033 " transform="matrix(0.989549,0,0,-0.989549,1.148247,67.554898)"/>
<path style="fill-rule:evenodd;fill:rgb(13.725281%,12.156677%,12.548828%);fill-opacity:1;stroke-width:0.4997;stroke-linecap:butt;stroke-linejoin:miter;stroke:rgb(13.725281%,12.156677%,12.548828%);stroke-opacity:1;stroke-miterlimit:2.613126;" d="M 38.010738 10.334786 C 38.409436 9.367647 37.947578 8.25445 36.976491 7.855752 C 36.005405 7.457053 34.896155 7.922859 34.497457 8.889998 C 34.098759 9.861085 34.560617 10.970335 35.531704 11.369033 C 36.50279 11.767731 37.61204 11.305873 38.010738 10.334786 Z M 38.010738 10.334786 " transform="matrix(0.989549,0,0,-0.989549,1.148247,67.554898)"/>
<path style="fill:none;stroke-width:0.4997;stroke-linecap:butt;stroke-linejoin:miter;stroke:rgb(0%,0%,0%);stroke-opacity:1;stroke-miterlimit:2.613126;" d="M 17.763974 33.238222 C 17.483701 33.107954 16.903418 33.092164 16.856048 32.673729 C 16.808678 32.255293 17.270536 31.426316 16.816573 31.256574 C 15.975754 30.94472 14.487543 33.001372 15.067827 33.293487 C 15.869171 33.692185 16.449454 31.074988 15.652058 30.67629 C 14.850714 30.273644 13.323029 32.421088 13.90726 32.709256 C 14.704656 33.111902 15.288887 30.490757 14.487543 30.092059 C 13.686199 29.693361 12.158514 31.836857 12.742745 32.128973 C 13.540142 32.527671 14.124373 29.910474 13.323029 29.511775 C 12.525632 29.113077 10.997947 31.256574 11.578231 31.548689 C 12.379575 31.947387 12.959858 29.33019 12.158514 28.927544 C 11.361118 28.528846 9.833433 30.67629 10.413716 30.964458 C 11.21506 31.367104 11.795344 28.745959 10.997947 28.347261 C 10.196603 27.948563 8.668918 30.092059 9.249201 30.384174 C 10.050545 30.782873 10.583459 28.252521 9.833433 27.766977 C 9.426839 27.502494 8.866293 28.947282 8.400487 28.734117 L 7.449138 28.291996 " transform="matrix(0.989549,0,0,-0.989549,1.148247,67.554898)"/>
<path style="fill-rule:evenodd;fill:rgb(13.725281%,12.156677%,12.548828%);fill-opacity:1;stroke-width:0.4997;stroke-linecap:butt;stroke-linejoin:miter;stroke:rgb(13.725281%,12.156677%,12.548828%);stroke-opacity:1;stroke-miterlimit:2.613126;" d="M 6.801747 26.43272 C 6.106986 26.097182 5.274062 26.389297 4.942471 27.080111 C 4.606933 27.774872 4.899049 28.607796 5.589862 28.943334 C 6.284624 29.274925 7.117548 28.986757 7.449138 28.291996 C 7.784676 27.597234 7.496508 26.76431 6.801747 26.43272 Z M 6.801747 26.43272 " transform="matrix(0.989549,0,0,-0.989549,1.148247,67.554898)"/>
<path style="fill:none;stroke-width:0.4997;stroke-linecap:butt;stroke-linejoin:miter;stroke:rgb(0%,0%,0%);stroke-opacity:1;stroke-miterlimit:2.613126;" d="M 34.68299 29.638096 C 34.955368 29.460458 35.294853 28.951229 35.697499 29.144657 C 36.096197 29.338085 36.577793 30.214432 36.980439 29.906526 C 37.726518 29.33019 36.731746 26.851156 36.147515 27.206431 C 35.342223 27.695922 37.347557 29.681518 38.152848 29.195975 C 38.95814 28.706484 37.904155 26.140604 37.319924 26.49588 C 36.514633 26.985371 38.519967 28.970967 39.325258 28.485424 C 40.130549 27.995933 39.076565 25.434001 38.488386 25.785329 C 37.687043 26.27482 39.692376 28.264363 40.497668 27.774872 C 41.299012 27.289329 40.248975 24.723449 39.660796 25.078725 C 38.855505 25.564268 40.860838 27.553812 41.66613 27.064321 C 42.471421 26.578778 41.417437 24.012898 40.833206 24.368174 C 40.027914 24.853717 42.033248 26.843261 42.838539 26.35377 C 43.643831 25.868226 42.589846 23.302347 42.005615 23.657622 C 41.200324 24.147113 43.158287 26.041917 44.010949 25.647166 C 44.472807 25.430053 43.50172 24.119481 43.951736 23.827365 L 44.8794 23.231292 " transform="matrix(0.989549,0,0,-0.989549,1.148247,67.554898)"/>
<path style="fill-rule:evenodd;fill:rgb(13.725281%,12.156677%,12.548828%);fill-opacity:1;stroke-width:0.4997;stroke-linecap:butt;stroke-linejoin:miter;stroke:rgb(13.725281%,12.156677%,12.548828%);stroke-opacity:1;stroke-miterlimit:2.613126;" d="M 46.900524 23.697097 C 47.58739 23.266819 47.796608 22.358893 47.36633 21.672026 C 46.936052 20.98516 46.032073 20.77989 45.345206 21.20622 C 44.65834 21.636499 44.449122 22.544425 44.8794 23.231292 C 45.309679 23.918158 46.213658 24.123428 46.900524 23.697097 Z M 46.900524 23.697097 " transform="matrix(0.989549,0,0,-0.989549,1.148247,67.554898)"/>
<path style="fill:none;stroke-width:0.4997;stroke-linecap:butt;stroke-linejoin:miter;stroke:rgb(0%,0%,0%);stroke-opacity:1;stroke-miterlimit:2.613126;" d="M 18.363995 38.298926 C 17.97714 38.460774 17.424489 39.033163 16.96263 38.693677 C 16.496824 38.358139 16.082336 37.130464 15.498105 37.434422 C 14.412541 37.994968 15.115197 41.381929 15.944173 41.062181 C 17.081056 40.624008 14.980982 37.631797 13.840152 38.069971 C 12.70327 38.508144 13.461192 42.017478 14.290168 41.69773 C 15.42705 41.259557 13.323029 38.271294 12.186147 38.709467 C 11.049265 39.143693 11.807186 42.653027 12.632215 42.333278 C 13.769097 41.899053 11.669023 38.906842 10.532141 39.345016 C 9.395259 39.783189 10.153181 43.288575 10.97821 42.972775 C 12.115092 42.534601 10.015018 39.542391 8.878136 39.980564 C 7.741254 40.418737 8.499175 43.928071 9.324204 43.608323 C 10.461086 43.17015 8.361012 40.181887 7.22413 40.616113 C 6.087248 41.054286 6.841222 44.56362 7.670199 44.243872 C 8.807081 43.805699 6.746482 40.943756 5.570125 41.255609 C 4.930629 41.421404 5.870135 43.31226 5.226692 43.580691 L 3.912172 44.133342 " transform="matrix(0.989549,0,0,-0.989549,1.148247,67.554898)"/>
<path style=" stroke:none;fill-rule:evenodd;fill:rgb(13.725281%,12.156677%,12.548828%);fill-opacity:1;" d="M 2.574219 24.925781 C 1.613281 24.539062 1.144531 23.445312 1.53125 22.484375 C 1.917969 21.519531 3.011719 21.054688 3.972656 21.4375 C 4.9375 21.824219 5.40625 22.917969 5.019531 23.882812 C 4.632812 24.84375 3.539062 25.3125 2.574219 24.925781 Z M 2.574219 24.925781 "/>
<g clip-path="url(#clip2)" clip-rule="nonzero">
<path style="fill:none;stroke-width:0.4997;stroke-linecap:butt;stroke-linejoin:miter;stroke:rgb(13.725281%,12.156677%,12.548828%);stroke-opacity:1;stroke-miterlimit:2.613126;" d="M 1.441032 43.079357 C 0.469946 43.47016 -0.00375514 44.575462 0.387048 45.546549 C 0.777851 46.521583 1.883153 46.991337 2.85424 46.604481 C 3.829274 46.213678 4.302975 45.108376 3.912172 44.133342 C 3.521369 43.162255 2.416067 42.688554 1.441032 43.079357 Z M 1.441032 43.079357 " transform="matrix(0.989549,0,0,-0.989549,1.148247,67.554898)"/>
</g>
<path style="fill:none;stroke-width:0.4997;stroke-linecap:butt;stroke-linejoin:miter;stroke:rgb(0%,0%,0%);stroke-opacity:1;stroke-miterlimit:2.613126;" d="M 24.968175 43.793856 C 24.506316 44.287294 24.076038 45.483389 23.172059 45.293909 C 22.272027 45.100481 20.866715 43.576743 20.207481 44.40572 C 18.987701 45.933405 22.228605 50.429615 23.231272 49.423001 C 24.608952 48.037426 19.579828 45.033373 18.202148 46.418948 C 16.824468 47.804523 20.223271 52.442844 21.225938 51.43623 C 22.603618 50.050655 17.574494 47.050549 16.196814 48.432177 C 14.819134 49.817752 18.221885 54.456073 19.224552 53.449458 C 20.598284 52.067831 15.56916 49.063778 14.19148 50.445405 C 12.8138 51.83098 16.216551 56.469301 17.219218 55.462687 C 18.596898 54.08106 13.563827 51.077007 12.186147 52.462582 C 10.808467 53.844209 14.211218 58.486477 15.213885 57.475916 C 16.591565 56.094288 11.558493 53.090235 10.180813 54.47581 C 8.803133 55.857438 12.205884 60.499706 13.208551 59.493092 C 14.586231 58.107517 9.699217 55.265312 8.17548 56.489039 C 7.354398 57.15222 9.9637 59.303611 9.197884 60.120745 L 7.634671 61.786593 " transform="matrix(0.989549,0,0,-0.989549,1.148247,67.554898)"/>
<path style="fill-rule:evenodd;fill:rgb(13.725281%,12.156677%,12.548828%);fill-opacity:1;stroke-width:0.4997;stroke-linecap:butt;stroke-linejoin:miter;stroke:rgb(13.725281%,12.156677%,12.548828%);stroke-opacity:1;stroke-miterlimit:2.613126;" d="M 3.327941 61.857648 C 2.159479 63.065586 2.191059 64.991969 3.398996 66.164379 C 4.606933 67.332841 6.537264 67.301261 7.705726 66.093324 C 8.874188 64.885386 8.842608 62.955055 7.634671 61.786593 C 6.426734 60.618131 4.50035 60.649711 3.327941 61.857648 Z M 3.327941 61.857648 " transform="matrix(0.989549,0,0,-0.989549,1.148247,67.554898)"/>
<path style="fill:none;stroke-width:0.4997;stroke-linecap:butt;stroke-linejoin:miter;stroke:rgb(0%,0%,0%);stroke-opacity:1;stroke-miterlimit:2.613126;" d="M 21.22199 27.372227 C 20.866715 26.795891 19.82852 26.065602 20.246956 25.24452 C 20.669339 24.423439 22.508878 23.47209 21.885172 22.615481 C 20.7325 21.040425 15.541528 22.982599 16.248132 24.214221 C 17.223166 25.907701 21.443051 21.845717 20.471964 20.152236 C 19.49693 18.458756 14.124373 20.519354 14.834924 21.750976 C 15.806011 23.444457 20.025896 19.382472 19.054809 17.688992 C 18.083722 15.995511 12.711165 18.052162 13.417769 19.287732 C 14.392803 20.981213 18.612688 16.91528 17.641602 15.2218 C 16.666567 13.532267 11.29401 15.588918 12.004561 16.82054 C 12.975648 18.514021 17.195533 14.452036 16.224447 12.758555 C 15.25336 11.065075 9.880803 13.125673 10.587406 14.357296 C 11.562441 16.050776 15.782326 11.988791 14.807291 10.295311 C 13.836205 8.60183 8.463648 10.662429 9.174199 11.894051 C 10.145286 13.587532 14.17569 9.620287 13.394084 7.832066 C 12.971701 6.86098 10.208446 8.811048 9.624215 7.859699 L 8.424172 5.909631 " transform="matrix(0.989549,0,0,-0.989549,1.148247,67.554898)"/>
<path style=" stroke:none;fill-rule:evenodd;fill:rgb(13.725281%,12.156677%,12.548828%);fill-opacity:1;" d="M 10.539062 65.832031 C 9.691406 67.261719 7.84375 67.734375 6.410156 66.886719 C 4.980469 66.039062 4.507812 64.1875 5.359375 62.757812 C 6.207031 61.328125 8.054688 60.855469 9.484375 61.707031 C 10.914062 62.554688 11.386719 64.402344 10.539062 65.832031 Z M 10.539062 65.832031 "/>
<g clip-path="url(#clip3)" clip-rule="nonzero">
<path style="fill:none;stroke-width:0.4997;stroke-linecap:butt;stroke-linejoin:miter;stroke:rgb(13.725281%,12.156677%,12.548828%);stroke-opacity:1;stroke-miterlimit:2.613126;" d="M 9.489999 1.741063 C 8.63339 0.296275 6.76622 -0.181373 5.317484 0.675236 C 3.872697 1.531845 3.395048 3.402964 4.255605 4.847751 C 5.112214 6.292539 6.979385 6.770187 8.424172 5.909631 C 9.86896 5.053021 10.346608 3.185851 9.489999 1.741063 Z M 9.489999 1.741063 " transform="matrix(0.989549,0,0,-0.989549,1.148247,67.554898)"/>
</g>
</g>
</svg>
