<?xml version="1.0" encoding="utf-8"?>
<!-- Generator: Adobe Illustrator 28.2.0, SVG Export Plug-In . SVG Version: 6.00 Build 0)  -->
<svg version="1.1" id="Layer_1" xmlns="http://www.w3.org/2000/svg" xmlns:xlink="http://www.w3.org/1999/xlink" x="0px" y="0px"
	 viewBox="0 0 67.61 69.27" style="enable-background:new 0 0 67.61 69.27;" xml:space="preserve">
<style type="text/css">
	.st0{fill-rule:evenodd;clip-rule:evenodd;fill:#BCBEC0;}
	.st1{fill:none;stroke:#000000;stroke-width:0.5;stroke-miterlimit:2.6131;}
	.st2{fill:#ED1C24;}
	.st3{fill:none;stroke:#ED1C24;stroke-width:0.5;stroke-miterlimit:2.6131;}
	.st4{fill:none;stroke:#010101;stroke-width:0.4997;stroke-miterlimit:2.6131;}
	.st5{fill-rule:evenodd;clip-rule:evenodd;}
	.st6{fill:none;stroke:#000000;stroke-width:0.4997;stroke-miterlimit:2.6131;}
</style>
<circle class="st0" cx="26.94" cy="34.56" r="9.3"/>
<circle class="st1" cx="26.94" cy="34.56" r="9.3"/>
<polygon class="st2" points="26,39.59 27.89,39.59 27.89,35.51 31.97,35.51 31.97,33.62 27.89,33.62 27.89,29.54 26,29.54 26,33.62 
	21.92,33.62 21.92,35.51 26,35.51 "/>
<polygon class="st3" points="26,39.59 27.89,39.59 27.89,35.51 31.97,35.51 31.97,33.62 27.89,33.62 27.89,29.54 26,29.54 26,33.62 
	21.92,33.62 21.92,35.51 26,35.51 "/>
<path class="st4" d="M36.24,34.57c0.63,0.01,1.72,0.5,2.18-0.23c0.46-0.73,0.35-2.67,1.34-2.58c1.82,0.17,2.74,5.29,1.41,5.31
	c-1.83,0.03-0.57-5.32,1.26-5.34c1.83-0.03,2.74,5.29,1.41,5.31c-1.83,0.03-0.57-5.32,1.26-5.34c1.83-0.03,2.74,5.29,1.41,5.31
	c-1.83,0.03-0.57-5.32,1.26-5.34c1.83-0.03,2.74,5.29,1.41,5.31c-1.83,0.03-0.57-5.32,1.26-5.34c1.83-0.03,2.74,5.29,1.41,5.31
	c-1.83,0.03-0.57-5.32,1.26-5.34c1.83-0.03,2.74,5.29,1.41,5.31c-1.83,0.03-0.56-5.12,1.26-5.34c0.98-0.12,0.73,3.04,1.78,3.05
	l2.14,0.03"/>
<path class="st5" d="M62.51,31.77c1.57,0,2.85,1.28,2.85,2.85c0,1.57-1.28,2.85-2.85,2.85c-1.58,0-2.85-1.28-2.85-2.85
	C59.65,33.04,60.93,31.77,62.51,31.77z"/>
<path class="st6" d="M62.51,31.77c1.57,0,2.85,1.28,2.85,2.85c0,1.57-1.28,2.85-2.85,2.85c-1.58,0-2.85-1.28-2.85-2.85
	C59.65,33.04,60.93,31.77,62.51,31.77z"/>
<path class="st4" d="M33.22,27.7c0.35-0.24,1.12-0.4,1.09-0.97c-0.04-0.57-0.85-1.58-0.28-1.91c1.05-0.61,3.54,1.79,2.82,2.32
	c-0.98,0.73-2.38-2.65-1.4-3.38c0.98-0.73,3.54,1.79,2.82,2.32c-0.98,0.73-2.38-2.65-1.4-3.38c0.98-0.73,3.54,1.79,2.82,2.32
	c-0.98,0.73-2.38-2.65-1.4-3.38c0.98-0.73,3.54,1.79,2.82,2.32c-0.98,0.73-2.38-2.65-1.4-3.38c0.98-0.73,3.54,1.79,2.82,2.32
	c-0.98,0.73-2.38-2.65-1.4-3.38c0.98-0.73,3.54,1.79,2.82,2.32c-0.98,0.73-2.29-2.55-1.4-3.38c0.48-0.45,1.58,1.36,2.15,0.96
	l1.17-0.82"/>
<path class="st5" d="M46.33,15.98c0.85-0.61,2.04-0.42,2.65,0.43c0.61,0.85,0.42,2.04-0.43,2.65c-0.85,0.61-2.04,0.42-2.65-0.43
	C45.29,17.78,45.48,16.59,46.33,15.98z"/>
<path class="st6" d="M46.33,15.98c0.85-0.61,2.04-0.42,2.65,0.43c0.61,0.85,0.42,2.04-0.43,2.65c-0.85,0.61-2.04,0.42-2.65-0.43
	C45.29,17.78,45.48,16.59,46.33,15.98z"/>
<path class="st4" d="M28.25,25.36c0.19-0.38,0.79-0.89,0.49-1.38c-0.31-0.49-1.5-0.98-1.16-1.54c0.63-1.04,3.96-0.12,3.59,0.68
	c-0.51,1.11-3.36-1.18-2.85-2.29c0.51-1.11,3.96-0.12,3.59,0.68c-0.51,1.11-3.36-1.18-2.85-2.29c0.51-1.11,3.96-0.12,3.59,0.68
	c-0.51,1.11-3.36-1.19-2.85-2.29c0.51-1.11,3.96-0.12,3.59,0.68c-0.51,1.11-3.36-1.19-2.85-2.29c0.51-1.11,3.96-0.12,3.59,0.68
	c-0.51,1.11-3.36-1.18-2.85-2.29c0.51-1.11,3.96-0.12,3.59,0.68c-0.51,1.11-3.23-1.14-2.85-2.29c0.21-0.63,2.03,0.43,2.35-0.19
	l0.64-1.28"/>
<path class="st5" d="M34.13,8.78c0.45-0.95,1.59-1.35,2.53-0.89c0.95,0.45,1.35,1.59,0.89,2.53c-0.45,0.95-1.59,1.35-2.53,0.89
	C34.07,10.86,33.67,9.73,34.13,8.78z"/>
<path class="st6" d="M34.13,8.78c0.45-0.95,1.59-1.35,2.53-0.89c0.95,0.45,1.35,1.59,0.89,2.53c-0.45,0.95-1.59,1.35-2.53,0.89
	C34.07,10.86,33.67,9.73,34.13,8.78z"/>
<path class="st4" d="M29.64,43.47c0.15,0.39,0.13,1.19,0.7,1.28c0.57,0.1,1.73-0.46,1.92,0.17c0.35,1.17-2.56,3.02-2.91,2.21
	c-0.48-1.12,3.13-1.7,3.61-0.58c0.48,1.12-2.56,3.02-2.91,2.21c-0.48-1.12,3.13-1.7,3.61-0.58c0.48,1.12-2.56,3.02-2.91,2.21
	c-0.48-1.12,3.13-1.7,3.61-0.58c0.48,1.12-2.56,3.02-2.91,2.21c-0.48-1.12,3.13-1.7,3.61-0.58c0.48,1.12-2.56,3.02-2.91,2.21
	c-0.48-1.12,3.13-1.7,3.61-0.58c0.48,1.12-2.56,3.02-2.91,2.21c-0.48-1.12,3.01-1.64,3.61-0.58c0.32,0.58-1.69,1.22-1.43,1.87
	l0.52,1.33"/>
<path class="st5" d="M38.01,58.93c0.4,0.97-0.06,2.08-1.03,2.48c-0.97,0.4-2.08-0.06-2.48-1.03c-0.4-0.97,0.06-2.08,1.03-2.48
	C36.5,57.5,37.61,57.96,38.01,58.93z"/>
<path class="st6" d="M38.01,58.93c0.4,0.97-0.06,2.08-1.03,2.48c-0.97,0.4-2.08-0.06-2.48-1.03c-0.4-0.97,0.06-2.08,1.03-2.48
	C36.5,57.5,37.61,57.96,38.01,58.93z"/>
<path class="st4" d="M17.77,36.03c-0.28,0.13-0.86,0.15-0.91,0.57c-0.05,0.42,0.41,1.25-0.04,1.42c-0.84,0.31-2.33-1.75-1.75-2.04
	c0.8-0.4,1.38,2.22,0.58,2.62c-0.8,0.4-2.33-1.75-1.75-2.04c0.8-0.4,1.38,2.22,0.58,2.62c-0.8,0.4-2.33-1.75-1.75-2.04
	c0.8-0.4,1.38,2.22,0.58,2.62c-0.8,0.4-2.33-1.75-1.75-2.04c0.8-0.4,1.38,2.22,0.58,2.62c-0.8,0.4-2.33-1.75-1.75-2.04
	c0.8-0.4,1.38,2.22,0.58,2.62c-0.8,0.4-2.33-1.75-1.75-2.04c0.8-0.4,1.33,2.13,0.58,2.62c-0.41,0.26-0.97-1.18-1.43-0.97l-0.95,0.44
	"/>
<path class="st5" d="M6.8,42.84c-0.69,0.33-1.53,0.04-1.86-0.65c-0.33-0.69-0.04-1.53,0.65-1.86c0.69-0.33,1.53-0.04,1.86,0.65
	C7.79,41.67,7.49,42.5,6.8,42.84z"/>
<path class="st6" d="M6.8,42.84c-0.69,0.33-1.53,0.04-1.86-0.65c-0.33-0.69-0.04-1.53,0.65-1.86c0.69-0.33,1.53-0.04,1.86,0.65
	C7.79,41.67,7.49,42.5,6.8,42.84z"/>
<path class="st4" d="M34.68,39.63c0.27,0.18,0.61,0.69,1.01,0.49c0.4-0.19,0.88-1.07,1.29-0.76c0.75,0.57-0.25,3.05-0.83,2.7
	c-0.81-0.49,1.2-2.48,2.01-1.99c0.81,0.49-0.25,3.05-0.83,2.7c-0.81-0.49,1.2-2.48,2.01-1.99c0.81,0.49-0.25,3.05-0.83,2.7
	c-0.81-0.49,1.2-2.48,2.01-1.99c0.81,0.49-0.25,3.05-0.83,2.7c-0.81-0.49,1.2-2.48,2.01-1.99s-0.25,3.05-0.83,2.7
	c-0.81-0.49,1.2-2.48,2.01-1.99c0.81,0.49-0.25,3.05-0.83,2.7c-0.81-0.49,1.15-2.39,2.01-1.99c0.46,0.22-0.51,1.52-0.06,1.82
	l0.93,0.6"/>
<path class="st5" d="M46.9,45.57c0.69,0.43,0.9,1.34,0.47,2.02c-0.43,0.69-1.33,0.9-2.02,0.47c-0.69-0.43-0.9-1.34-0.47-2.02
	C45.31,45.35,46.21,45.14,46.9,45.57z"/>
<path class="st6" d="M46.9,45.57c0.69,0.43,0.9,1.34,0.47,2.02c-0.43,0.69-1.33,0.9-2.02,0.47c-0.69-0.43-0.9-1.34-0.47-2.02
	C45.31,45.35,46.21,45.14,46.9,45.57z"/>
<path class="st4" d="M18.37,30.97c-0.39-0.16-0.94-0.73-1.4-0.4c-0.47,0.34-0.88,1.56-1.46,1.26c-1.08-0.56-0.38-3.95,0.45-3.63
	c1.14,0.44-0.96,3.43-2.1,2.99c-1.14-0.44-0.38-3.95,0.45-3.63c1.14,0.44-0.96,3.43-2.1,2.99c-1.14-0.44-0.38-3.95,0.45-3.63
	c1.14,0.44-0.96,3.43-2.1,2.99c-1.14-0.44-0.38-3.95,0.45-3.63c1.14,0.44-0.96,3.43-2.1,2.99s-0.38-3.95,0.45-3.63
	c1.14,0.44-0.96,3.43-2.1,2.99c-1.14-0.44-0.38-3.95,0.45-3.63c1.14,0.44-0.92,3.3-2.1,2.99c-0.64-0.17,0.3-2.06-0.34-2.33
	l-1.32-0.55"/>
<path class="st5" d="M1.44,26.19C0.47,25.8,0,24.69,0.39,23.72c0.39-0.97,1.5-1.45,2.47-1.06c0.97,0.39,1.45,1.5,1.06,2.47
	C3.52,26.11,2.42,26.58,1.44,26.19z"/>
<path class="st6" d="M1.44,26.19C0.47,25.8,0,24.69,0.39,23.72c0.39-0.97,1.5-1.45,2.47-1.06c0.97,0.39,1.45,1.5,1.06,2.47
	C3.52,26.11,2.42,26.58,1.44,26.19z"/>
<path class="st4" d="M24.97,25.47c-0.46-0.49-0.89-1.69-1.8-1.5c-0.9,0.19-2.31,1.71-2.97,0.89c-1.22-1.53,2.02-6.02,3.03-5.02
	c1.38,1.38-3.65,4.39-5.03,3c-1.38-1.38,2.02-6.02,3.03-5.02c1.38,1.38-3.65,4.39-5.03,3c-1.38-1.38,2.02-6.02,3.03-5.02
	c1.38,1.38-3.65,4.39-5.03,3c-1.38-1.38,2.02-6.02,3.03-5.02c1.38,1.38-3.65,4.39-5.03,3c-1.38-1.38,2.02-6.02,3.03-5.02
	c1.38,1.38-3.65,4.39-5.03,3c-1.38-1.38,2.02-6.02,3.03-5.02c1.38,1.38-3.51,4.23-5.03,3C7.35,12.11,9.96,9.96,9.2,9.15L7.63,7.48"
	/>
<path class="st5" d="M3.33,7.41C2.16,6.2,2.19,4.27,3.4,3.11c1.21-1.17,3.13-1.14,4.3,0.07c1.17,1.21,1.14,3.14-0.07,4.3
	C6.43,8.65,4.5,8.62,3.33,7.41z"/>
<path class="st6" d="M3.33,7.41C2.16,6.2,2.19,4.27,3.4,3.11c1.21-1.17,3.13-1.14,4.3,0.07c1.17,1.21,1.14,3.14-0.07,4.3
	C6.43,8.65,4.5,8.62,3.33,7.41z"/>
<path class="st4" d="M21.22,41.9c-0.35,0.58-1.39,1.31-0.97,2.13c0.42,0.82,2.26,1.77,1.64,2.63c-1.15,1.58-6.34-0.37-5.64-1.6
	c0.97-1.69,5.19,2.37,4.22,4.06c-0.97,1.69-6.34-0.37-5.64-1.6c0.97-1.69,5.19,2.37,4.22,4.06c-0.97,1.69-6.34-0.37-5.64-1.6
	c0.97-1.69,5.19,2.37,4.22,4.06c-0.97,1.69-6.34-0.37-5.64-1.6c0.97-1.69,5.19,2.37,4.22,4.06c-0.97,1.69-6.34-0.37-5.64-1.6
	c0.97-1.69,5.19,2.37,4.22,4.06c-0.97,1.69-6.34-0.37-5.64-1.6c0.97-1.69,5,2.27,4.22,4.06c-0.42,0.97-3.19-0.98-3.77-0.03
	l-1.2,1.95"/>
<path class="st5" d="M9.49,67.53c-0.86,1.45-2.72,1.92-4.17,1.07c-1.45-0.86-1.92-2.73-1.07-4.17c0.86-1.45,2.72-1.92,4.17-1.06
	C9.87,64.21,10.35,66.08,9.49,67.53z"/>
<path class="st6" d="M9.49,67.53c-0.86,1.45-2.72,1.92-4.17,1.07c-1.45-0.86-1.92-2.73-1.07-4.17c0.86-1.45,2.72-1.92,4.17-1.06
	C9.87,64.21,10.35,66.08,9.49,67.53z"/>
</svg>
