<?xml version="1.0" encoding="UTF-8"?>
<svg id="Layer_1" data-name="Layer 1" xmlns="http://www.w3.org/2000/svg" viewBox="0 0 85 85">
  <defs>
    <style>
      .cls-1 {
        fill: #fff;
        fill-rule: evenodd;
      }
    </style>
  </defs>
  <path class="cls-1" d="M82.32,80.71l-20.42-32.24c-.11-.17-.25-.31-.42-.4l-10.6-5.58,10.6-5.58c.17-.09.32-.22.42-.39L82.32,4.29c.11-.17.17-.37.18-.58,0-.21-.03-.41-.13-.6-.09-.18-.23-.34-.4-.44-.17-.11-.36-.16-.56-.16h-29.27c-.38,0-.76.11-1.09.31-.33.2-.61.5-.8.85l-21.08,38.84,21.08,38.85c.19.35.47.64.8.85.33.2.71.31,1.09.31h29.27c.2,0,.39-.06.56-.16.17-.11.31-.26.4-.44.09-.18.14-.39.13-.6,0-.21-.07-.41-.18-.58ZM15.83,29.17c7.36,0,13.33-5.97,13.33-13.33S23.2,2.5,15.83,2.5,2.5,8.47,2.5,15.83s5.97,13.33,13.33,13.33ZM3.57,42.5h25.6v38.85c0,.3-.11.6-.31.81-.2.21-.47.34-.76.34H3.57c-.28,0-.56-.12-.76-.34-.2-.22-.31-.51-.31-.81v-37.7c0-.3.11-.6.31-.81.2-.22.47-.34.76-.34Z"/>
</svg>