<?xml version="1.0" encoding="UTF-8"?>
<svg id="Layer_1" xmlns="http://www.w3.org/2000/svg" version="1.1" viewBox="0 0 240.88 302.41">
  <!-- Generator: Adobe Illustrator 29.6.1, SVG Export Plug-In . SVG Version: 2.1.1 Build 9)  -->
  <defs>
    <style>
      .st0 {
        fill: none;
      }

      .st1 {
        fill: #f5821f;
      }

      .st2 {
        fill: #00a651;
      }

      .st3 {
        fill: #ec2027;
      }

      .st4 {
        fill: #ffcb08;
      }

      .st5 {
        fill: #ffcc08;
      }

      .st6 {
        fill: #ed1c24;
      }

      .st7 {
        fill: #48543c;
      }

      .st8 {
        fill: #fff;
      }

      .st9 {
        fill: #2e3192;
      }

      .st10 {
        fill: #006fba;
      }
    </style>
  </defs>
  <g id="Layer_2">
    <rect class="st0" x="-118.67" y="-71.67" width="445.76" height="445.76"/>
    <circle class="st0" cx="104.21" cy="151.21" r="222.88"/>
    <rect class="st0" x="-158.48" y="-111.48" width="525.37" height="525.37"/>
    <circle class="st0" cx="104.21" cy="151.21" r="262.69"/>
  </g>
  <g id="Layer_11">
    <path class="st2" d="M14.8,210.05c1.41-3.84,2.68-6.91,3.57-9,1.85-4.32,2.31-4.94,4.23-9.57,1.54-3.7,1.66-4.3,2.93-7.06.85-1.86,1.11-2.28,3.19-6.46.58-1.17,2.08-4.19,3.42-7,1.31-2.74,1.97-4.24,4.25-9.3,4.67-10.39,4.15-9.13,4.84-10.72,3.06-7.15,4.92-12.54,5.43-14,2.12-6.2,3.06-10.03,3.54-12.14.62-2.73,1.23-5.97,1.18-9.96-.02-1.4-.13-3.72-1.06-6.46-.82-2.4-1.71-3.49-2.01-3.83-.28-.33-1.54-1.74-3.78-2.74-.81-.36-2.1-.92-3.89-.98-2.21-.08-3.84.66-4.68,1.05-.46.21-1.79.87-3.51,2.53-.6.58-2.13,2.14-4.21,6.01-1.51,2.8-2.36,5.04-3.04,6.87-.39,1.04-1.21,3.31-2.22,7.02-.22.82-1.03,3.8-2.31,10.19-.7,3.47-1.53,7.68-2.35,13.32-.57,3.93-.89,6.84-1.18,9.5-.83,7.72-1.19,13.67-1.43,17.68-.26,4.42-.4,7.87-.65,14.39-.13,3.23-.19,4.89-.24,7.03-.14,5.76-.08,10.46,0,13.63h-.02Z"/>
    <path class="st7" d="M27.74,116.67c.23-1.27.73-3.1,1.85-5.11,1.27-2.28,2.75-3.7,3.12-4.05,1.18-1.11,3.25-3.04,6.55-3.72.94-.19,2.63-.52,4.63.05,2.1.6,3.36,1.86,3.9,2.41.35.36,1.14,1.22,1.92,2.93,1.23,2.67,1.34,5.07,1.41,7.23,0,.4.05,1.77-.11,3.56-.13,1.42-.35,2.64-.56,3.61-2.88,1-5.27,1.28-6.83,1.36-.39.02-1.26.05-2.37,0-1.6-.08-3.28-.15-5.25-.84-1.86-.64-3.19-1.55-3.95-2.15-1.4-1.1-2.22-2.2-2.88-3.09-.64-.87-1.1-1.64-1.41-2.2h-.02Z"/>
    <path class="st7" d="M50.01,125.54c-.84.36-1.98.81-3.39,1.2-1.24.35-3.04.85-5.42.94-1.45.06-2.84.11-4.57-.37-1.74-.48-2.89-1.24-4.4-2.25-1.01-.67-1.97-1.31-2.94-2.41-.4-.46-.76-.93-1.47-1.89-.57-.77-1.03-1.42-1.36-1.89-.76,1.66-1.51,3.66-2.09,5.97-.39,1.59-.64,3.06-.79,4.4.47.5,1.16,1.2,2.03,1.99.88.79,1.94,1.75,3.5,2.78.83.55,1.7,1.12,2.99,1.68,1.73.75,3.16,1.03,3.56,1.1,1.34.24,2.29.23,4.01.21,1.49-.02,3.29-.05,5.53-.58.78-.18,1.34-.39,1.79-.54"/>
    <path class="st7" d="M22.95,133.21c.39.46.96,1.09,1.69,1.79.51.49.84.81,1.36,1.2.9.69,1.69,1.09,2.43,1.47.46.23,1.05.51,1.75.79-.39,1.23-.67,2.24-.85,2.93-.41,1.58-.46,2.06-1.02,4.24-.16.63-.3,1.15-.56,2.15-.44,1.65-.54,1.98-.73,2.72-.23.87-.38,1.53-.85,3.67-.54,2.49-.69,3.23-1.02,4.71-.47,2.15-.48,2.1-1.3,5.71-.62,2.74-.93,4.1-1.3,5.87-.16.77-.63,3-1.19,5.97-.45,2.39-.45,2.58-.96,5.34-.7,3.81-.74,3.75-1.3,6.81-.73,3.98-.57,3.57-1.3,7.54-.35,1.91-.64,3.37-1.02,5.76-.2,1.29-.35,2.36-.45,3.09.02-1.91.05-4.67.11-8.01.09-5.19.14-7.79.28-11.16.03-.79.13-2.86.58-9.63.43-6.51.65-9.77.86-12.13.53-6.09,1.17-10.7,2.44-19.93.16-1.16.44-3.16,1.02-5.79.47-2.16.97-3.92,1.33-5.11h0Z"/>
    <path class="st7" d="M32.99,139.62c-.55,1.54-1.31,3.75-2.13,6.43-.74,2.42-.84,2.97-2.31,8.14-1.36,4.78-1.42,4.81-1.9,6.71-.48,1.88-.83,3.46-1.48,6.38-.42,1.88-.72,3.26-1.07,4.89-.24,1.11-.78,3.65-1.47,6.99-.51,2.49-.77,3.77-1.07,5.31-.18.93-.29,1.54-.79,4.32-.04.21-.86,4.78-.9,5,.36-.75.91-1.88,1.57-3.28.55-1.15.85-1.79,1.57-3.33,1.51-3.21,1.72-3.65,2.36-5,1.51-3.21,1.66-3.54,2.36-5,.57-1.19,1.04-2.14,1.57-3.23,1.15-2.34,1.33-2.67,2.13-4.32.69-1.4.84-1.74,2.13-4.42,2.05-4.25,1.83-3.76,2.41-5,1.92-4.07,3.35-7.45,3.87-8.69.48-1.15.6-1.47,1.85-4.48,1.01-2.42,1.51-3.63,1.52-3.64.34-.7.85-1.68,1.29-3.12.13-.43.22-.8.28-1.04-.41.17-1,.39-1.74.57-1.28.32-2.27.37-3.54.42-.82.03-2.04.07-3.65-.1-1.16-.13-2.14-.33-2.88-.52h.02Z"/>
    <path class="st8" d="M40.85,110.17c2.18,0,3.94,2.01,3.94,4.49s-1.77,4.49-3.94,4.49-3.95-2.01-3.95-4.49,1.77-4.49,3.95-4.49Z"/>
    <ellipse class="st4" cx="42.6" cy="131.93" rx="2.19" ry="2.37"/>
    <ellipse class="st5" cx="28.34" cy="127.98" rx="2.21" ry="2.39"/>
    <ellipse class="st5" cx="34.64" cy="131.72" rx="2.26" ry="2.32"/>
    <path class="st4" d="M108.92,216.8v1.44c-.08,8.5-2.05,16.12-5.16,21.39,2.22-3.77,3.64-9.23,3.69-15.33v-1.03c.07-9.32-1.83-15.2-3.69-15.25h-.02c-1.86.05-3.76,5.92-3.69,15.25v1.03c.05,5.71,1.3,10.87,3.29,14.6-2.88-5.23-4.68-12.54-4.75-20.66v-1.44c-.1-13.02,2.56-21.23,5.15-21.28h.02c2.6.05,5.26,8.26,5.15,21.28h.01Z"/>
    <path class="st1" d="M107.47,223.28v1.03c-.06,6.09-1.47,11.55-3.69,15.33h0c1.91-3.24,3.13-7.94,3.18-13.17v-.89c.06-8.03-1.58-13.09-3.18-13.11h0c-1.6,0-3.24,5.08-3.18,13.11v.89c.05,5.23,1.27,9.93,3.18,13.17h0c-.14-.23-.27-.48-.4-.73-1.99-3.74-3.24-8.89-3.29-14.6v-1.03c-.07-9.32,1.83-15.2,3.69-15.25h.02c1.86.05,3.76,5.92,3.69,15.25h-.02Z"/>
    <path class="st6" d="M103.76,249.12c2.48,0,4.49,2.15,4.49,4.8s-2.01,4.8-4.49,4.8-4.5-2.15-4.5-4.8,2.01-4.8,4.5-4.8Z"/>
    <path class="st6" d="M106.94,225.58v.89c-.05,5.23-1.27,9.93-3.18,13.17h0c-1.91-3.24-3.13-7.94-3.18-13.17v-.89c-.06-8.03,1.58-13.09,3.18-13.11h0c1.6,0,3.24,5.08,3.18,13.11Z"/>
    <path class="st10" d="M99.82,239.18c.1,1.41-.13,2.47-.27,3.1-.16.71-.46,1.97-1.36,3.42-1.12,1.77-2.49,2.76-2.8,2.97-.19.14-1.09.75-2.46,1.26-1.21.46-2.21.62-2.7.69-5.68.85-11.57-.26-11.57-.26-5.01-.95-8.55-2.6-11.01-3.77-1.28-.61-5.11-2.49-9.46-5.83-1.75-1.34-2.9-2.4-4.22-3.61-1.84-1.68-6.61-6.09-10.44-11.64-1.24-1.79-2.48-3.85-2.48-3.85-.94-1.54-1.89-3.35-2.45-4.42.1-5.92.2-9.27.8-12.75.24-1.39.51-2.69.79-3.89.18.93.52,2.49.89,3.88.2.77.67,2.52,1.52,4.88.06.18.13.36.21.55h0c-.06.52-.14,1.3-.18,1.83-.11,1.55-.17,3.05-.18,4.49.13.32.32.76.55,1.29.53,1.2,1.76,3.97,3.69,7.03,2.09,3.32,4.15,5.61,5.39,6.99,3.97,4.38,7.64,7.11,8.79,7.94,1.4,1.01,3.44,2.47,6.41,4,2.14,1.1,5.74,2.91,10.82,3.9,5.44,1.06,10.15.66,10.15.6,0-.02-.58-.05-2.51-.25-.87-.08-2.07-.21-2.69-.29-2.38-.29-4.34-.85-5.35-1.15-2.6-.76-4.53-1.62-5.38-2.03-4.64-2.19-7.61-4.91-9.1-6.28-3.01-2.8-4.77-5.33-6.03-7.16-2.44-3.55-3.77-6.5-4.89-9.03-.56-1.25-2.35-5.38-3.86-11.18-.02-.09-.05-.17-.07-.27l1.7-.38c.64,2.78,1.19,4.53,1.19,4.53,3.7,11.98,9.49,18.86,10.78,20.35,3.57,4.12,6.54,6.15,8.32,7.22,0,0,5.2,3.13,11.24,4.23,2.22.41,4.31.48,4.31.48,1.46.05,2.72-.02,3.71-.11-.5-.21-1.21-.57-1.93-1.17-1.56-1.28-2.12-2.81-2.32-3.41-.09-.27-.45-1.37-.41-2.85.07-2.34,1.1-4.03,1.5-4.62.48-.72,1.27-1.88,2.87-2.72.6-.32,2.2-1.16,4.22-.82,1.89.3,3.03,1.44,3.62,2.02.89.87,1.31,1.72,1.64,2.41.83,1.68.98,3.14,1.02,3.66v.02h0ZM96.32,242.2c.17-.49.44-1.26.38-2.28-.04-.64-.13-2.12-1.4-3.16-.23-.19-1.14-.91-2.49-.91-1.41,0-2.34.81-2.63,1.07-1.33,1.19-1.33,2.8-1.33,3.28,0,1.39.64,2.78,1.61,3.5.17.13.52.38,1.07.51.64.15,1.18.05,1.45-.03-.02.17-.06.41-.16.69-.2.6-.5,1-.71,1.28-.15.19-.36.44-.66.71.2-.06.53-.17.92-.34,2.83-1.3,3.83-3.95,3.95-4.31h0Z"/>
    <path class="st9" d="M96.69,239.92c.06,1.02-.2,1.79-.38,2.28-.13.36-1.12,3.01-3.95,4.31-.39.17-.72.28-.92.34.29-.27.51-.52.66-.71.21-.28.52-.68.71-1.28.1-.28.14-.52.16-.69-.27.08-.82.18-1.45.03-.54-.13-.89-.38-1.07-.51-.97-.71-1.61-2.1-1.61-3.5,0-.47,0-2.08,1.33-3.28.29-.26,1.21-1.06,2.63-1.07,1.35,0,2.26.71,2.49.91,1.27,1.04,1.35,2.52,1.4,3.16h0Z"/>
    <path class="st9" d="M88.24,247.99c0,.06-4.71.46-10.15-.6-5.08-.99-8.69-2.8-10.82-3.9-2.97-1.52-5.01-2.98-6.41-4-1.15-.83-4.82-3.55-8.79-7.94-1.24-1.37-3.3-3.67-5.39-6.99-1.93-3.06-3.16-5.83-3.69-7.03-.23-.53-.42-.97-.55-1.29,0-1.44.07-2.94.18-4.49.04-.52.13-1.31.18-1.82.73,1.92,1.89,4.38,3.99,8.86.96,2.05,1.69,3.56,3.05,5.43.68.93,1.3,1.65,1.73,2.13-.36-.88-.87-2.13-1.48-3.63-.48-1.2-1.15-2.84-1.54-3.81-.31-.78-.75-1.87-1.25-3.17-.21-.62-.64-1.96-.91-2.98-.13-.51-.47-1.83-.84-3.22-.69-2.56-1.24-4.6-1.5-7.21-.13-1.3-.15-2.4-.15-3.24.71-1.19,1.4-2.38,2.11-3.57.38,5.99,1.38,11.01,2.36,14.82.02.09.05.17.07.27,1.52,5.8,3.3,9.93,3.86,11.18,1.12,2.53,2.44,5.48,4.89,9.03,1.26,1.83,3.02,4.36,6.03,7.16,1.49,1.37,4.45,4.09,9.1,6.28.85.41,2.78,1.27,5.38,2.03,1.01.3,2.97.86,5.35,1.15.61.08,1.82.21,2.69.29,1.93.2,2.51.23,2.51.25h0,0Z"/>
    <path class="st4" d="M50.33,180.16h0c-1.39,1.8-2.33,3.1-3.2,4.44-2.63,4.04-4.09,7.42-4.46,8.29-.15.36-.52,1.24-.97,2.54-.45,1.32-1.01,3.08-1.52,5.19-.28,1.19-.55,2.49-.79,3.89-.59,3.48-.7,6.82-.8,12.75,0,.67-.02,1.37-.03,2.1-.06,4.36-.03,7.94,0,10.37-.61-.6-1.28-1.3-1.99-2.07l.84-.3c.04.08.08.16.13.23-.16-.62-.37-1.56-.56-2.42-.03-.12-.31-1.36-.54-2.72-.08-.43-.58-3.33-.79-6.13-.42-5.66.38-10.89.49-11.54.84-5.34,2.35-9.21,3.34-11.7,2.21-5.61,4.66-9.5,7.97-14.72,2.67-4.19,3.13-4.47,7.81-11.4,3.88-5.74,5.87-8.68,7.65-11.7,2.74-4.66,6.89-11.69,8.96-21.51.98-4.69,2.18-13.24.08-23.25-.8-3.81-1.75-8.16-4.8-12.98-2.52-3.98-6.15-7.77-6.51-8.15-1.96-2.04-3.24-3.06-5.78-5.96-1.61-1.85-3.02-3.65-4.07-6.19-.44-1.08-.84-2.65-.99-3.3.13-.38.2-.72.25-.97l1.08-.41c.41.66.95,1.5,1.84,2.49.33.36,1.26,1.31,1.48,1.52.28.33.69.83,1.19,1.42,4.32,5.13,6.26,7.25,7.83,9.1,3.77,4.49,6.28,8.68,7.55,10.95,1.33,2.38,3.21,5.81,4.71,10.68.38,1.23,1.6,5.36,2.05,10.95.54,6.81-.35,12.11-.8,14.37-1.14,5.76-2.96,9.76-4.77,13.74-3.18,7.01-6.66,12.08-8.85,15.26-2.77,4.03-6.16,8.4-6.39,8.7-1.51,1.94-1.84,2.29-3.9,4.93-1.09,1.4-1.98,2.54-2.74,3.54v-.03h0Z"/>
    <path class="st1" d="M49.48,76.9c.03-.57.06-1.14.1-1.72,0-.17.03-.73.04-.84h0c.05-.12.11-.28.17-.45.15.65.55,2.22.99,3.3,1.05,2.54,2.46,4.34,4.07,6.19,2.54,2.91,3.82,3.92,5.78,5.96.36.38,3.99,4.17,6.51,8.15,3.05,4.82,4,9.18,4.8,12.98,2.1,10.01.91,18.56-.08,23.25-2.07,9.82-6.21,16.85-8.96,21.51-1.78,3.02-3.77,5.96-7.65,11.7-4.68,6.92-5.15,7.21-7.81,11.4-3.32,5.23-5.76,9.12-7.97,14.72-.98,2.49-2.49,6.36-3.34,11.7-.1.65-.91,5.89-.49,11.54.21,2.8.71,5.7.79,6.13.24,1.36.52,2.6.54,2.72.19.85.4,1.8.56,2.42-.51-1.62-1.12-3.78-1.66-6.35-.45-2.09-1.22-5.81-1.4-10.31-.06-1.53-.26-8.31,2.21-16.89,1.26-4.39,2.72-7.53,4.08-10.46,1.09-2.36,2.35-4.81,6.7-12.08,6.13-10.24,6.8-10.68,9.92-16.32,2.79-5.05,4.49-8.13,6.22-12.63,1.43-3.72,3.81-10.04,4.38-18.58.38-5.65.77-11.61-2.08-18.42-.83-1.99-2.69-6.44-6.53-10.75-.71-.8-2.19-2.38-4.28-4.91-3.04-3.68-3.7-4.91-4.06-5.64-1.36-2.82-1.54-5.67-1.59-6.25-.02-.28-.03-.51-.04-.67l.07-.42v.02h.01Z"/>
    <path class="st6" d="M65.91,105.54c2.85,6.81,2.46,12.77,2.08,18.42-.57,8.53-2.95,14.86-4.38,18.58-1.73,4.5-3.43,7.58-6.22,12.63-3.12,5.64-3.79,6.08-9.92,16.32-4.35,7.27-5.61,9.73-6.7,12.08-1.36,2.93-2.83,6.07-4.08,10.46-2.46,8.59-2.27,15.36-2.21,16.89.18,4.49.96,8.22,1.4,10.31.54,2.56,1.15,4.73,1.66,6.35-.04-.07-.08-.15-.13-.23-.3-.56-.69-1.29-1.15-2.16-1.35-2.59-3.27-6.27-4.93-10.51-1.21-3.09-2.27-5.78-2.96-9.6-.37-2.05-.9-5.12-.59-9.14.34-4.49,1.56-7.79,2.26-9.69,1.05-2.81,1.95-4.27,5.03-9.69,1.9-3.34,3.72-6.72,5.62-10.06,2.63-4.61,7.77-13.93,12.32-25.6.29-.75,3.57-9.27,4.59-17.84.26-2.17.5-5.35-.05-9.19-.4-2.8-1.03-4.69-1.28-5.41-.54-1.56-1.4-3.9-3.42-6.36-.66-.8-1.43-1.73-2.76-2.64-.87-.6-2.29-1.54-4.39-1.83-1.81-.25-3.27.07-3.89.28-1.58.53-4.56,2.14-5.16,2.9h0c-.28.19-.54.39-.82.6-.47.34-1.4,1.07-2.4,2.17-.64.7-1.4,1.66-2.1,2.89.06-.2.17-.51.3-.89.87-2.55,1.52-4.31,1.74-4.9.43-1.18.76-2.42,1.19-4.22.08-.27.68-1.92.82-2.42.29-1.02.5-1.8.61-2.29.65-2.75.88-4.12,1.14-5.53.24-1.35.34-2.07.37-2.38.08-.74.13-1.41.21-2.7.04-.56.07-1.02.09-1.33.23.43.45.8.65,1.09.62.93,1.1,1.64,2.04,2.26.44.28,1.07.69,2,.82,1.33.18,2.37-.34,2.84-.56,1.17-.58,1.79-1.41,2.42-2.22.68-.89,1.03-1.7,1.19-2.12.27-.69.41-1.31.48-1.79,0,.16.02.39.04.67.05.58.23,3.43,1.59,6.25.36.73,1.02,1.96,4.06,5.64,2.09,2.53,3.57,4.11,4.28,4.91,3.84,4.32,5.7,8.76,6.53,10.75v.03h-.01Z"/>
    <path class="st4" d="M64.37,73.15c.24,1,0,1.81-.12,2.27-.11.39-.35,1.18-1.08,1.94.58-1.05.55-1.72.42-2.38-.17-.86-.58-1.33-1.12-1.59-.15-.08-.59-.28-1.15-.2-.47.08-.76.32-.97.49-.19.15-.55.46-.71,1-.13.43-.06.8,0,.98-.21-.03-.49-.1-.8-.21-.16-.06-.48-.19-.91-.47-.33-.21-.81-.58-1.35-1.2-.13-.14-.35-.42-.63-.85l.43-.25c.17.32.4.65.73.98.29.28.57.48.77.6,0-.4.05-1,.34-1.63.18-.4.61-1.34,1.7-1.79.71-.3,1.34-.24,1.58-.21.29.03,1.19.16,1.93.84.64.59.8,1.26.91,1.68h.03Z"/>
    <path class="st6" d="M63.6,74.98c.13.66.16,1.33-.42,2.38-.23.25-.69.73-1.47,1.06-.89.38-1.68.34-2.16.32-1.19-.06-2.04-.47-2.95-.89-.55-.27-1.32-.68-2.16-1.32-.22-.2-1.15-1.15-1.48-1.52-.89-.98-1.42-1.83-1.84-2.49-.4-.66-.89-1.44-1.37-2.55-.31-.73-.78-1.83-1.03-3.33-.02-.12-.03-.23-.05-.34-.1-.8-.11-1.5-.13-2.27,0-.74,0-2.42.23-4.07.03-.1.06-.2.1-.3.26-.8.59-1.79.8-2.68.08-.35.37-1.65.44-3.39.04-.96.1-2.56-.35-4.58-.17-.8-.4-1.5-.61-2.07l1.58-.49c.87,2.29,1.2,4.08,1.56,6.09.38,2.12.51,3.7.77,6.79.09,1.09.29,3.65.66,6.68.06.43.21,1.68.66,3.27.36,1.28.71,2.09,1.02,2.69.2.38.38.7.55.96.28.43.5.71.63.85.54.62,1.02.98,1.35,1.2.43.28.75.41.91.47.31.12.59.18.8.21-.06-.19-.13-.56,0-.98.15-.54.52-.85.71-1,.21-.17.5-.41.97-.49.56-.08,1,.12,1.15.2.54.27.96.73,1.12,1.59h0Z"/>
    <path class="st4" d="M57.57,113.89c.54,3.84.31,7.02.05,9.19-1.03,8.57-4.31,17.09-4.59,17.84-4.55,11.67-9.7,20.99-12.32,25.6-1.9,3.33-3.72,6.71-5.62,10.06-3.07,5.41-3.97,6.88-5.03,9.69-.71,1.9-1.92,5.2-2.26,9.69-.31,4.03.22,7.09.59,9.14.69,3.82,1.75,6.51,2.96,9.6,1.65,4.23,3.57,7.92,4.93,10.51.45.87.84,1.6,1.15,2.16l-.84.3c-.71-.78-1.45-1.64-2.21-2.59-2.39-2.98-3.9-5.5-4.52-6.57-1.07-1.85-2.86-5.01-4.2-9.51-.29-.98-1.4-4.81-1.64-9.99-.13-2.64-.24-5.01.4-7.99.52-2.37,1.3-4.1,3.49-8.18,3.07-5.7,4.52-7.87,7.39-12.96.9-1.59,3.02-5.39,5.52-10.3,1.61-3.15,3.4-6.7,5.47-11.52,1.82-4.27,3-7.52,3.36-8.52,1.25-3.49,2.49-7.01,3.54-11.75.8-3.64,1.07-6.05,1.15-6.85.36-3.68.22-6.17.12-7.35-.21-2.53-.6-3.97-.9-4.9-.5-1.55-1.08-2.62-1.26-2.95-.4-.74-1.15-2.08-2.58-3.51-.77-.76-1.53-1.52-2.82-2.17-.45-.23-1.89-.89-3.9-1-.69-.03-2.28-.05-4.08.62-.9.33-1.58.73-2.23,1.18.6-.76,3.57-2.37,5.16-2.9.61-.21,2.08-.52,3.89-.28,2.1.28,3.52,1.23,4.39,1.83,1.33.91,2.11,1.84,2.76,2.64,2.02,2.45,2.88,4.8,3.42,6.36.25.71.89,2.6,1.28,5.41l-.02-.03h0Z"/>
    <path class="st4" d="M56.39,72.67l-.43.25c-.17-.26-.36-.58-.55-.96-.31-.6-.66-1.41-1.02-2.69-.45-1.59-.6-2.84-.66-3.27-.36-3.04-.57-5.59-.66-6.68-.27-3.1-.4-4.67-.77-6.79-.36-2.01-.7-3.8-1.56-6.09v-.03c-.68-1.75-1.45-3.73-3.25-5.83-1.12-1.31-2.26-2.24-3.07-2.82.34.11.8.29,1.32.59.35.19.58.36.95.63.5.38.98.73,1.47,1.23.37.38.62.73.89,1.11,1.15,1.67,1.81,3.01,1.81,3.01.91,1.82,1.54,3.59,1.98,4.98.29.93,1.08,3.54,1.58,7,0,0,.37,2.6.49,5.86.06,1.55.03,3.81.03,3.81.07.98.4-1.28.4-1.21-.02.18-.03.39-.05.62-.07,1.3.02,2.28.08,3.02.19,2,.54,3.09.79,3.71.07.17.15.36.25.55h-.02Z"/>
    <path class="st6" d="M55.61,49.33c.34,1.86.31,4.31.26,9.19-.02,2.07-.09,2.91-.18,3.66-.14,1.18-.29,1.68-.37,2.59,0-.07-.33,2.2-.4,1.21,0,0,.03-2.26-.03-3.81-.12-3.26-.49-5.86-.49-5.86-.5-3.46-1.28-6.07-1.58-7-.44-1.39-1.08-3.16-1.98-4.98,0,0-.66-1.34-1.81-3.01-.27-.39-.52-.73-.89-1.11-.49-.51-.96-.85-1.47-1.23-.37-.27-.6-.44-.95-.63-.52-.3-.98-.48-1.32-.59.81.58,1.95,1.51,3.07,2.82,1.79,2.1,2.57,4.09,3.25,5.83v.03l-1.58.49c-.27-.73-.52-1.25-.64-1.48-.84-1.7-1.82-2.84-2.22-3.3-1.32-1.48-2.6-2.34-2.94-2.56-.69-.45-1.31-.77-1.78-.99-.4.6-.89,1.43-1.33,2.47-.55,1.31-.82,2.47-.96,3.4-.08.56-.13,1.03-.15,1.39s-.13,1.68.11,3.52c.09.75.24,1.58.47,2.47.31,1.23.74,2.82,1.91,4.58.57.85,1.02,1.53,1.74,2.09.17.19.68.84,1.02,1.17.22.23.4.4,1.03.98.29.26.64.58,1.05.96-.15.22-.4.52-.73.84-.31.29-.82.77-1.65,1.11-.31.12-.85.34-1.57.34-.82,0-1.41-.29-2.15-.65-.43-.21-1-.53-1.61-1.02,0,.37.05.91.19,1.55.23,1,.48,2.13,1.49,2.99.22.19,1.14.97,2.41.96.59,0,1.06-.19,1.54-.37.8-.31,1.35-.72,1.62-.95.38-.32.65-.62.83-.85.05.28.08.55.11.8.08.76.1,1.4.1,1.88,0,.6-.03.85-.08,1.08-.08.41-.25,1.19-.94,1.93-.77.83-1.7,1.09-2.01,1.17-1.05.26-1.91.04-2.38-.08-1.04-.28-1.73-.81-2.26-1.21-.21-.16-.56-.44-.94-.84-.64-.67-1.35-1.7-1.6-2.18h0c-.08-.25-.15-.47-.21-.65-.37-1.24-.54-2.26-.73-3.4-.15-.87-.24-1.61-.3-2.14.02-.78.13-1.89.15-2.67-.2-.41-.45-.96-.73-1.61-.24-.57-.6-1.43-.95-2.53-.24-.76-.54-1.72-.75-3-.22-1.37-.21-2.42-.2-3.24,0-1.17.02-2.28.35-3.7.28-1.2.65-2.06,1.15-3.2.55-1.28.91-1.96,1.47-2.88.47-.78.52-.91.91-1.64.34-.64.8-1.62.92-2h0c.15-.21.33-.44.53-.72.52-.71.8-1.13,1.36-1.77.07-.08.13-.14.2-.21.93-1,1.38-1.16,1.54-1.21.17-.06,1.11-.36,1.89.12.56.34.74.88.84,1.16.2.59.12,1.09.06,1.34.45.23,1.05.56,1.73.98,1.91,1.18,3.17,2.34,3.53,2.67.96.9,2.3,2.32,3.46,4.26,1.73,2.87,2.21,5.43,2.53,7.23h.04ZM41.52,59.59c.46.23.88.37,1.17.45-.45-.4-.98-.93-1.52-1.58-.77-.92-1.24-1.72-1.45-2.08-.64-1.13-.94-2.05-1.19-2.84-.21-.65-.48-1.59-.66-2.74-.18-1.11-.22-1.97-.22-2.32-.03-.82.02-1.09.02-2.16,0-.85-.03-1.55-.06-1.99-.13.24-.31.58-.49,1-.15.37-.59,1.48-.78,3.24-.13,1.11-.28,2.49.13,4.24.15.65.48,1.98,1.47,3.43.59.84,1.15,1.37,2,2.16.58.54,1.01.88,1.58,1.17v.02Z"/>
    <path class="st4" d="M51.12,72.51l-1.08.41c-.76.64-1.45,1.1-1.98,1.42-.74.45-1.31.78-2.17,1.04-.53.16-1.19.34-2.05.25-.58-.06-.99-.23-1.34-.37-.5-.2-1.34-.62-2.3-1.5-.53-.49-.93-.96-1.26-1.44-.33-.47-.59-.94-.86-1.4-.61-1.09-.98-2.05-1.22-2.78.25.47.96,1.5,1.6,2.18.38.4.73.68.94.84.53.4,1.22.93,2.26,1.21.47.12,1.33.34,2.38.08.31-.07,1.24-.34,2.01-1.17.68-.74.85-1.52.94-1.93.05-.23.08-.49.08-1.08,0-.48-.02-1.11-.1-1.88l1.72-.1c0,.11.03.23.05.34.24,1.5.71,2.6,1.03,3.33.47,1.11.96,1.89,1.37,2.55h-.02Z"/>
    <path class="st10" d="M50.33,180.17c-.03.1-.11.36-.15.52,0,0-1.22,4.18-1.75,8.64-.89,7.58.5,15.73,1.63,20.64l-1.7.38c-.98-3.81-1.98-8.83-2.36-14.82-.71,1.19-1.4,2.38-2.11,3.57,0,.84.02,1.94.15,3.24.26,2.62.81,4.66,1.5,7.21.37,1.39.71,2.71.84,3.22.27,1.02.71,2.36.91,2.98-.55-1.42-1.19-3.1-1.84-4.9-1.34-3.72-2-5.58-2.51-7.69-.78-3.22-1.04-5.83-1.14-6.96-.03-.3-.04-.56-.06-.74l-.07-.02c.45-1.3.82-2.18.97-2.54.37-.87,1.83-4.25,4.46-8.29.87-1.34,1.82-2.64,3.2-4.44h.03Z"/>
    <path class="st9" d="M49.77,49.01c.45,2.02.39,3.61.35,4.58-.07,1.74-.36,3.04-.44,3.39-.21.89-.54,1.88-.8,2.68-.03.1-.06.2-.1.3-.16.49-.31.93-.31.93-.15.42-.28.79-.39,1.08-.09-.13-.22-.32-.4-.53-.41-.51-.93-.98-1.63-1.44-.98-.65-1.39-.67-2.1-1.07-.21-.12-.4-.25-.57-.38-.72-.56-1.17-1.24-1.74-2.09-1.17-1.76-1.6-3.35-1.91-4.58-.23-.89-.38-1.72-.47-2.47l1.96-.19v.19c.1-.18.27-.45.47-.77.52-.81.79-1.21,1.17-1.53.65-.53,1.37-.68,1.7-.75.98-.19,1.78,0,2.16.1-.16-.43-.43-1.04-.89-1.7-.57-.82-1.16-1.34-1.72-1.83-.43-.38-1.04-.87-1.83-1.37-.65,1.31-.91,2.43-1.02,3.22l-1.98-.27c.14-.93.4-2.09.96-3.4.44-1.04.94-1.87,1.33-2.47.47.22,1.09.54,1.78.99.34.22,1.62,1.08,2.94,2.56.4.45,1.38,1.6,2.22,3.3.12.23.37.75.64,1.48.2.57.43,1.27.61,2.07v-.03h.01ZM48.11,53.94c.05-.73-.02-.54-.02-2.21,0,0,0-.87-.11-1.77-.02-.14-.06-.42-.21-.75-.03-.07-.06-.13-.08-.16-.07.2-.17.49-.33.81-.16.31-.27.53-.47.78-.27.32-.54.49-.88.71-.21.14-.52.33-.96.5-.24.09-.65.24-1.2.28-.36.03-.91.07-1.49-.21-.31-.14-.52-.32-.65-.45.1.38.26.93.5,1.56.23.62.46,1.21.89,1.93.34.57.64.91,1.08,1.45,0,0,.59.7,1.1.96.02,0,.15.07.27.13l.24.12h.02c.15.06.34.1.34.1.24.06.65.29.96.42.03,0,.09.04.17.03,0,0,.07,0,.12-.05.03-.03.1-.38.11-.45,0-.1.04-.35.1-.6.03-.11.06-.2.11-.39.03-.11.05-.21.08-.43.03-.14.08-.41.12-.67.14-.88.19-1.65.19-1.65h0Z"/>
    <path class="st6" d="M49.62,74.34c0,.1-.03.66-.04.84-.03.58-.07,1.15-.1,1.72l-.07.42c-.54.73-1.06,1.3-1.49,1.72-.73.71-1.19,1.15-1.98,1.5-.4.18-1.2.52-2.23.43-.94-.08-1.59-.49-2.1-.82-1.12-.72-1.68-1.59-2.33-2.59-.39-.6-.85-1.32-1.18-2.38-.27-.85-.34-1.61-.36-2.14.15.35.36.83.67,1.38.5.89,1.1,1.95,2.25,2.89.66.53,1.45,1.17,2.7,1.37.23.03,1.23.17,2.37-.24.85-.3,1.38-.76,1.77-1.09.68-.59,1.08-1.19,1.38-1.66.18-.27.39-.63.54-.95.03-.05.08-.14.13-.27,0-.03.03-.07.06-.12h.01Z"/>
    <path class="st4" d="M48.68,66.29l-1.72.1c-.03-.25-.06-.52-.11-.8-.18.23-.45.54-.83.85-.27.23-.82.63-1.62.95-.48.18-.95.36-1.54.37-1.27,0-2.19-.78-2.41-.96-1.01-.86-1.26-1.99-1.49-2.99-.14-.63-.18-1.18-.19-1.55.61.49,1.18.81,1.61,1.02.74.36,1.33.65,2.15.65.72,0,1.26-.21,1.57-.34.83-.34,1.35-.82,1.65-1.11.34-.32.58-.62.73-.84-.41-.38-.76-.7-1.05-.96-.63-.58-.81-.74-1.03-.98-.34-.34-.85-.98-1.02-1.17.17.14.36.26.57.38.71.41,1.12.42,2.1,1.07.71.47,1.22.94,1.63,1.44.17.21.31.4.4.53.11-.29.24-.66.39-1.08,0,0,.15-.43.31-.93-.23,1.64-.24,3.32-.23,4.07,0,.78.03,1.48.13,2.27h0Z"/>
    <path class="st8" d="M48.09,51.73c0,1.66.07,1.48.02,2.21,0,0-.05.77-.19,1.65-.04.25-.09.52-.12.67-.03.21-.06.32-.08.43-.05.19-.08.28-.11.39-.06.25-.08.51-.1.6,0,.07-.08.41-.11.45-.05.04-.12.05-.12.05-.08,0-.14,0-.17-.03-.31-.13-.73-.36-.96-.42,0,0-.19-.04-.34-.1h-.02s-.08-.04-.24-.12c-.12-.06-.25-.12-.27-.13-.51-.26-1.1-.96-1.1-.96-.45-.54-.74-.88-1.08-1.45-.43-.72-.66-1.31-.89-1.93-.24-.63-.4-1.18-.5-1.56.13.13.34.31.65.45.58.28,1.13.23,1.49.21.55-.04.96-.19,1.2-.28.45-.17.75-.36.96-.5.34-.21.61-.39.88-.71.21-.25.31-.47.47-.78.16-.32.26-.61.33-.81.02.03.05.09.08.16.15.33.19.61.21.75.12.9.11,1.77.11,1.77h0Z"/>
    <path class="st8" d="M45.84,44.74c.46.66.73,1.27.89,1.7-.38-.11-1.19-.29-2.16-.1-.34.07-1.05.22-1.7.75-.38.32-.64.72-1.17,1.53-.21.32-.37.59-.47.77v-.19c-.03-.46-.06-1.06-.07-1.76,0-.91,0-1.75.13-2.68h0c.11-.79.37-1.92,1.02-3.22.79.51,1.4.99,1.83,1.37.57.49,1.15,1.01,1.72,1.83h-.02Z"/>
    <path class="st4" d="M42.69,60.04c-.29-.08-.71-.22-1.17-.45-.57-.29-1.01-.63-1.58-1.17-.86-.8-1.42-1.32-2-2.16-.99-1.45-1.32-2.78-1.47-3.43-.41-1.75-.26-3.13-.13-4.24.19-1.76.63-2.87.78-3.24.18-.42.36-.76.49-1,.03.44.06,1.13.06,1.99,0,1.06-.05,1.34-.02,2.16,0,.34.04,1.21.22,2.32.18,1.15.45,2.09.66,2.74.26.79.56,1.71,1.19,2.84.21.36.68,1.17,1.45,2.08.54.65,1.08,1.18,1.52,1.58v-.02Z"/>
    <path class="st9" d="M41.27,44.75h0c-.14.93-.13,1.77-.13,2.69,0,.7.03,1.3.07,1.76l-1.96.19c-.24-1.83-.14-3.16-.11-3.52s.07-.83.15-1.39l1.98.27h0Z"/>
    <path class="st9" d="M40.02,32.77c-.06.07-.13.14-.2.21-.56.63-.84,1.06-1.36,1.77-.2.28-.38.51-.53.71h0c-.46.6-.75.93-1.06,1.35-1.04,1.38-1.61,2.59-2.71,4.92-1.03,2.2-1.54,3.3-1.86,4.67,0,.05-.02.09-.03.13-.09-1.15-.27-3.37-.43-5.06-.33-3.26-.76-5.7-.87-6.32-.26-1.44-.65-3.57-1.39-6.26-.97-3.48-1.79-5.24-1.55-5.35.32-.14,2.04,2.74,3.11,4.54,1.96,3.29,2.94,4.93,2.96,4.97.24.49.4.89.54.87.45-.08.07-4.53-.45-7.98-.43-2.76-.81-4.04-1.11-7.21-.11-1.17-.17-2.13-.2-2.78.21.39.52.96.89,1.66,1.56,2.9,2.33,4.35,2.99,5.69,2.09,4.32,2.67,6.58,2.85,7.31.17.7.31,1.44.4,2.15h0Z"/>
    <path class="st4" d="M37.79,79.86c-.02.31-.05.77-.09,1.33-.08,1.29-.13,1.96-.21,2.7-.03.31-.13,1.02-.37,2.38-.26,1.41-.49,2.78-1.14,5.53-.12.49-.32,1.27-.61,2.29-.14.49-.73,2.14-.82,2.42.22-.91.45-1.97.73-3.24.59-2.6.88-3.95,1.15-5.9.24-1.83.34-3.35.42-4.56.12-1.84.16-3.41.18-4.62.24.64.5,1.21.76,1.69,0,0,0-.02,0-.02Z"/>
    <path class="st4" d="M36.87,36.82c.31-.42.6-.75,1.06-1.35-.13.38-.58,1.36-.92,2-.38.73-.44.85-.91,1.64-.55.93-.91,1.6-1.47,2.88-.5,1.14-.87,1.99-1.15,3.2-.33,1.42-.34,2.53-.35,3.7,0,.82,0,1.86.2,3.24.2,1.28.5,2.24.75,3,.35,1.1.71,1.96.95,2.53.27.65.52,1.2.73,1.61-.02.78-.13,1.9-.15,2.67-2.12-2.58-2.91-4.97-3.25-6.37-.5-2.07-.46-3.9-.43-5.46.03-1.17.06-2.22.34-3.56,0-.04.02-.08.03-.13.31-1.38.83-2.48,1.86-4.67,1.1-2.33,1.67-3.54,2.71-4.92h0Z"/>
    <path class="st2" d="M192.71,210.05c-1.41-3.84-2.68-6.91-3.57-9-1.85-4.32-2.31-4.94-4.23-9.57-1.54-3.7-1.66-4.3-2.93-7.06-.85-1.86-1.11-2.28-3.19-6.46-.58-1.17-2.08-4.19-3.42-7-1.31-2.74-1.97-4.24-4.25-9.3-4.67-10.39-4.15-9.13-4.84-10.72-3.06-7.15-4.92-12.54-5.43-14-2.12-6.2-3.06-10.03-3.54-12.14-.62-2.73-1.23-5.97-1.18-9.96.02-1.4.13-3.72,1.06-6.46.82-2.4,1.71-3.49,2.01-3.83.28-.33,1.54-1.74,3.78-2.74.81-.36,2.1-.92,3.89-.98,2.21-.08,3.84.66,4.68,1.05.46.21,1.79.87,3.51,2.53.6.58,2.13,2.14,4.21,6.01,1.51,2.8,2.36,5.04,3.04,6.87.39,1.04,1.21,3.31,2.22,7.02.22.82,1.03,3.8,2.31,10.19.7,3.47,1.53,7.68,2.35,13.32.57,3.93.89,6.84,1.18,9.5.83,7.72,1.19,13.67,1.43,17.68.26,4.42.4,7.87.65,14.39.13,3.23.19,4.89.24,7.03.14,5.76.08,10.46,0,13.63h.02Z"/>
    <path class="st7" d="M179.77,116.67c-.23-1.27-.73-3.1-1.85-5.11-1.27-2.28-2.75-3.7-3.12-4.05-1.18-1.11-3.25-3.04-6.55-3.72-.94-.19-2.63-.52-4.63.05-2.1.6-3.36,1.86-3.9,2.41-.35.36-1.14,1.22-1.92,2.93-1.23,2.67-1.34,5.07-1.41,7.23,0,.4-.05,1.77.11,3.56.13,1.42.35,2.64.56,3.61,2.88,1,5.27,1.28,6.83,1.36.39.02,1.26.05,2.37,0,1.6-.08,3.28-.15,5.25-.84,1.86-.64,3.19-1.55,3.95-2.15,1.4-1.1,2.22-2.2,2.88-3.09.64-.87,1.1-1.64,1.41-2.2h.02Z"/>
    <path class="st7" d="M157.5,125.54c.84.36,1.98.81,3.39,1.2,1.24.35,3.04.85,5.42.94,1.45.06,2.84.11,4.57-.37,1.74-.48,2.89-1.24,4.4-2.25,1.01-.67,1.97-1.31,2.94-2.41.4-.46.76-.93,1.47-1.89.57-.77,1.03-1.42,1.36-1.89.76,1.66,1.51,3.66,2.09,5.97.39,1.59.64,3.06.79,4.4-.47.5-1.16,1.2-2.03,1.99-.88.79-1.94,1.75-3.5,2.78-.83.55-1.7,1.12-2.99,1.68-1.73.75-3.16,1.03-3.56,1.1-1.34.24-2.29.23-4.01.21-1.49-.02-3.29-.05-5.53-.58-.78-.18-1.34-.39-1.79-.54"/>
    <path class="st7" d="M184.56,133.21c-.39.46-.96,1.09-1.69,1.79-.51.49-.84.81-1.36,1.2-.9.69-1.69,1.09-2.43,1.47-.46.23-1.05.51-1.75.79.39,1.23.67,2.24.85,2.93.41,1.58.46,2.06,1.02,4.24.16.63.3,1.15.56,2.15.44,1.65.54,1.98.73,2.72.23.87.38,1.53.85,3.67.54,2.49.69,3.23,1.02,4.71.47,2.15.48,2.1,1.3,5.71.62,2.74.93,4.1,1.3,5.87.16.77.63,3,1.19,5.97.45,2.39.45,2.58.96,5.34.7,3.81.74,3.75,1.3,6.81.73,3.98.57,3.57,1.3,7.54.35,1.91.64,3.37,1.02,5.76.2,1.29.35,2.36.45,3.09-.02-1.91-.05-4.67-.11-8.01-.09-5.19-.14-7.79-.28-11.16-.03-.79-.13-2.86-.58-9.63-.43-6.51-.65-9.77-.86-12.13-.53-6.09-1.17-10.7-2.44-19.93-.16-1.16-.44-3.16-1.02-5.79-.47-2.16-.97-3.92-1.33-5.11h0Z"/>
    <path class="st7" d="M174.52,139.62c.55,1.54,1.31,3.75,2.13,6.43.74,2.42.84,2.97,2.31,8.14,1.36,4.78,1.42,4.81,1.9,6.71.48,1.88.83,3.46,1.48,6.38.42,1.88.72,3.26,1.07,4.89.24,1.11.78,3.65,1.47,6.99.51,2.49.77,3.77,1.07,5.31.18.93.29,1.54.79,4.32.04.21.86,4.78.9,5-.36-.75-.91-1.88-1.57-3.28-.55-1.15-.85-1.79-1.57-3.33-1.51-3.21-1.72-3.65-2.36-5-1.51-3.21-1.66-3.54-2.36-5-.57-1.19-1.04-2.14-1.57-3.23-1.15-2.34-1.33-2.67-2.13-4.32-.69-1.4-.84-1.74-2.13-4.42-2.05-4.25-1.83-3.76-2.41-5-1.92-4.07-3.35-7.45-3.87-8.69-.48-1.15-.6-1.47-1.85-4.48-1.01-2.42-1.51-3.63-1.52-3.64-.34-.7-.85-1.68-1.29-3.12-.13-.43-.22-.8-.28-1.04.41.17,1,.39,1.74.57,1.28.32,2.27.37,3.54.42.82.03,2.04.07,3.65-.1,1.16-.13,2.14-.33,2.88-.52h-.02,0Z"/>
    <path class="st8" d="M166.66,110.17c-2.18,0-3.94,2.01-3.94,4.49s1.77,4.49,3.94,4.49,3.95-2.01,3.95-4.49-1.77-4.49-3.95-4.49Z"/>
    <ellipse class="st4" cx="164.91" cy="131.93" rx="2.19" ry="2.37"/>
    <ellipse class="st5" cx="179.17" cy="127.98" rx="2.21" ry="2.39"/>
    <ellipse class="st5" cx="172.87" cy="131.72" rx="2.26" ry="2.32"/>
    <path class="st6" d="M103.75,249.12c-2.48,0-4.49,2.15-4.49,4.8s2.01,4.8,4.49,4.8,4.5-2.16,4.5-4.8-2.01-4.8-4.5-4.8Z"/>
    <path class="st10" d="M107.69,239.18c-.1,1.4.13,2.46.27,3.1.16.71.46,1.98,1.36,3.42,1.12,1.78,2.49,2.76,2.8,2.97.19.14,1.09.75,2.45,1.27,1.22.46,2.21.62,2.71.69,5.68.85,11.57-.26,11.57-.26,5.01-.95,8.55-2.6,11.01-3.76,1.28-.61,5.11-2.49,9.46-5.83,1.75-1.34,2.9-2.4,4.22-3.61,1.84-1.68,6.61-6.09,10.45-11.64,1.24-1.79,2.48-3.85,2.48-3.85.94-1.55,1.88-3.35,2.45-4.41h0c-.1-5.93-.2-9.28-.8-12.76-.24-1.39-.51-2.69-.79-3.89-.18.94-.52,2.49-.89,3.87-.2.77-.67,2.52-1.52,4.89-.06.18-.13.37-.21.56.06.51.14,1.3.18,1.82.11,1.55.17,3.05.18,4.49-.13.32-.32.76-.55,1.29-.53,1.2-1.76,3.98-3.69,7.03-2.09,3.32-4.15,5.61-5.39,6.99-3.97,4.38-7.64,7.11-8.79,7.94-1.4,1.01-3.44,2.47-6.41,4-2.14,1.09-5.74,2.91-10.82,3.89-5.44,1.06-10.15.67-10.16.6,0-.03.57-.05,2.52-.25.87-.09,2.07-.21,2.69-.29,2.38-.3,4.34-.86,5.35-1.15,2.6-.76,4.53-1.63,5.38-2.03,4.64-2.2,7.61-4.91,9.1-6.29,3.01-2.8,4.77-5.33,6.03-7.16,2.44-3.55,3.77-6.5,4.89-9.03.56-1.25,2.34-5.38,3.86-11.18.02-.08.05-.17.07-.27l-1.7-.38c-.64,2.78-1.19,4.53-1.19,4.53-3.7,11.98-9.49,18.86-10.78,20.35-3.57,4.12-6.54,6.15-8.32,7.23,0,0-5.2,3.13-11.24,4.23-2.22.4-4.31.47-4.31.47-1.46.05-2.72,0-3.71-.11.5-.21,1.21-.56,1.93-1.16,1.56-1.29,2.12-2.82,2.32-3.42.09-.27.45-1.37.41-2.85-.07-2.34-1.1-4.02-1.5-4.62-.48-.71-1.27-1.88-2.87-2.72-.6-.32-2.2-1.15-4.22-.82-1.89.31-3.03,1.44-3.62,2.03-.89.87-1.31,1.72-1.64,2.4-.83,1.69-.98,3.14-1.02,3.67h0ZM111.19,242.21c-.17-.49-.44-1.26-.38-2.28.04-.64.13-2.12,1.4-3.17.23-.19,1.14-.91,2.49-.9,1.41,0,2.34.8,2.63,1.06,1.33,1.19,1.33,2.81,1.33,3.28,0,1.39-.64,2.78-1.61,3.49-.17.13-.52.38-1.07.51-.64.15-1.18.05-1.45-.03.02.16.06.4.16.68.2.6.5,1,.71,1.28.15.19.36.45.66.72-.2-.06-.53-.17-.92-.35-2.83-1.3-3.83-3.95-3.95-4.3h0Z"/>
    <path class="st9" d="M110.82,239.93c-.06,1.02.2,1.79.38,2.28.13.35,1.12,3,3.95,4.3.39.17.72.28.92.35-.29-.27-.51-.52-.66-.72-.21-.27-.52-.68-.71-1.28-.1-.28-.14-.52-.16-.68.27.07.82.17,1.45.03.54-.13.89-.38,1.07-.51.97-.71,1.61-2.1,1.61-3.49,0-.47,0-2.09-1.33-3.28-.29-.26-1.21-1.06-2.63-1.06-1.35,0-2.26.71-2.49.9-1.27,1.04-1.35,2.53-1.4,3.17h0Z"/>
    <path class="st9" d="M160.25,215.62c.22-.67.61-1.9.87-2.86.13-.51.47-1.84.84-3.22.69-2.56,1.24-4.6,1.5-7.22.13-1.29.15-2.4.15-3.24-.71-1.18-1.4-2.38-2.11-3.56-.38,5.99-1.38,11.01-2.36,14.81-.02.09-.05.18-.07.27-1.52,5.8-3.3,9.93-3.86,11.18-1.12,2.53-2.44,5.48-4.89,9.03-1.26,1.83-3.02,4.36-6.03,7.16-1.49,1.38-4.45,4.09-9.1,6.29-.85.4-2.78,1.27-5.38,2.03-1.01.29-2.97.85-5.35,1.15-.61.08-1.82.2-2.69.29-1.95.19-2.52.22-2.52.25,0,.06,4.72.46,10.16-.6,5.08-.98,8.69-2.8,10.82-3.89,2.97-1.53,5.01-2.98,6.41-4,1.15-.84,4.82-3.56,8.79-7.94,1.24-1.37,3.3-3.67,5.39-6.99,1.93-3.06,3.16-5.83,3.69-7.03.23-.52.42-.97.55-1.29,0-1.44-.07-2.94-.18-4.49-.04-.52-.13-1.31-.18-1.82-.73,1.91-1.89,4.38-3.99,8.86-.96,2.05-1.7,3.55-3.05,5.43-.68.93-1.3,1.65-1.73,2.14.36-.88.87-2.13,1.48-3.63.48-1.19,1.15-2.83,1.54-3.81.32-.82.77-1.94,1.3-3.3h0Z"/>
    <path class="st4" d="M129.75,119.62c-.54,6.81.35,12.11.8,14.37,1.14,5.76,2.96,9.76,4.77,13.74,3.18,7.01,6.66,12.08,8.85,15.26,2.77,4.04,6.16,8.4,6.39,8.7,1.51,1.94,1.84,2.29,3.9,4.93,1.08,1.39,1.97,2.53,2.72,3.52h0c1.39,1.82,2.34,3.11,3.21,4.46,2.63,4.04,4.09,7.43,4.46,8.29.15.36.52,1.24.97,2.54.46,1.31,1.01,3.08,1.52,5.18h0c.28,1.2.55,2.5.79,3.89.59,3.48.7,6.82.8,12.75h0c0,.67,0,1.36.03,2.09.06,4.36.03,7.94,0,10.37.61-.61,1.28-1.3,1.99-2.07l-.84-.3c-.04.08-.08.16-.13.23.16-.62.37-1.57.56-2.42.03-.12.31-1.36.54-2.72.08-.43.58-3.33.79-6.13.42-5.67-.38-10.9-.49-11.55-.84-5.34-2.35-9.21-3.34-11.7-2.21-5.61-4.66-9.5-7.97-14.72-2.67-4.2-3.13-4.47-7.81-11.4-3.88-5.74-5.87-8.68-7.65-11.7-2.74-4.66-6.89-11.69-8.96-21.51-.98-4.69-2.18-13.24-.08-23.25.8-3.81,1.75-8.16,4.8-12.98,2.52-3.98,6.15-7.77,6.51-8.15,1.96-2.03,3.24-3.06,5.78-5.96,1.61-1.85,3.02-3.65,4.07-6.19.44-1.08.84-2.64.99-3.3-.13-.38-.2-.72-.25-.98l-.92-.66c-.06.08-.11.17-.16.25-.4.66-.94,1.5-1.83,2.49-.33.36-1.26,1.31-1.48,1.52-.28.33-.69.82-1.19,1.42-4.32,5.14-6.26,7.25-7.83,9.11-3.77,4.48-6.28,8.68-7.55,10.94-1.33,2.38-3.21,5.82-4.71,10.68-.38,1.23-1.6,5.36-2.05,10.95h0Z"/>
    <path class="st1" d="M158.03,76.91c-.03-.57-.06-1.14-.1-1.72,0-.17-.03-.72-.04-.84v-.02c-.05-.11-.11-.26-.17-.43-.15.65-.55,2.21-.99,3.3-1.05,2.54-2.46,4.34-4.07,6.19-2.54,2.91-3.82,3.93-5.78,5.96-.36.38-3.99,4.18-6.51,8.15-3.05,4.82-4,9.18-4.8,12.98-2.1,10.01-.91,18.56.08,23.25,2.07,9.82,6.21,16.85,8.96,21.51,1.78,3.02,3.77,5.96,7.65,11.7,4.68,6.93,5.15,7.21,7.81,11.4,3.32,5.22,5.76,9.11,7.97,14.72.98,2.49,2.49,6.36,3.34,11.7.1.65.91,5.89.49,11.55-.21,2.8-.71,5.7-.79,6.13-.24,1.36-.52,2.6-.54,2.72-.19.85-.4,1.8-.56,2.42.51-1.63,1.12-3.78,1.66-6.35.45-2.08,1.22-5.81,1.4-10.31.06-1.53.26-8.3-2.21-16.89-1.26-4.39-2.72-7.54-4.08-10.46-1.09-2.36-2.35-4.8-6.7-12.08-6.13-10.24-6.8-10.68-9.92-16.32-2.79-5.04-4.49-8.13-6.22-12.62-1.43-3.72-3.81-10.05-4.38-18.58-.38-5.65-.77-11.62,2.08-18.42.83-2,2.69-6.44,6.53-10.76.71-.8,2.19-2.38,4.28-4.91,3.04-3.67,3.7-4.91,4.06-5.64,1.36-2.82,1.54-5.66,1.59-6.24.02-.28.03-.51.04-.67l-.07-.41h0Z"/>
    <path class="st6" d="M141.6,105.55c-2.85,6.81-2.46,12.77-2.08,18.42.57,8.53,2.95,14.85,4.38,18.58,1.73,4.49,3.43,7.58,6.22,12.62,3.12,5.64,3.79,6.08,9.92,16.32,4.35,7.28,5.61,9.73,6.7,12.08,1.36,2.93,2.83,6.07,4.08,10.46,2.46,8.59,2.27,15.36,2.21,16.89-.18,4.49-.96,8.22-1.4,10.31-.54,2.57-1.15,4.73-1.66,6.35.04-.07.08-.15.13-.23.3-.56.69-1.3,1.15-2.16,1.35-2.59,3.27-6.27,4.93-10.51,1.21-3.09,2.27-5.78,2.96-9.6.37-2.06.9-5.12.59-9.14-.34-4.49-1.56-7.79-2.26-9.69-1.05-2.81-1.95-4.27-5.03-9.69-1.9-3.34-3.72-6.71-5.62-10.06-2.63-4.61-7.77-13.93-12.32-25.6-.29-.74-3.57-9.27-4.59-17.84-.26-2.17-.5-5.35.05-9.19.4-2.8,1.03-4.69,1.28-5.41.54-1.55,1.4-3.9,3.42-6.36.66-.8,1.43-1.73,2.76-2.64.87-.6,2.29-1.54,4.39-1.83,1.81-.25,3.27.07,3.89.27,1.59.53,4.57,2.14,5.17,2.91h0c.28.19.54.39.82.6.47.34,1.4,1.07,2.4,2.18.64.69,1.4,1.66,2.1,2.89-.06-.2-.17-.51-.3-.89-.87-2.55-1.52-4.31-1.74-4.9-.43-1.18-.76-2.42-1.19-4.22-.08-.27-.68-1.92-.82-2.42-.29-1.02-.5-1.79-.61-2.29-.65-2.75-.88-4.11-1.14-5.53-.24-1.35-.34-2.07-.37-2.38-.08-.74-.13-1.41-.21-2.7-.04-.56-.07-1.02-.09-1.33-.22.43-.45.8-.65,1.1-.62.94-1.1,1.64-2.04,2.26-.44.28-1.07.69-2,.82-1.33.17-2.37-.34-2.84-.57-1.17-.58-1.79-1.4-2.42-2.22-.68-.89-1.03-1.7-1.19-2.12-.27-.69-.41-1.31-.48-1.79,0,.16-.02.39-.04.67-.05.58-.23,3.42-1.59,6.24-.36.73-1.02,1.97-4.06,5.64-2.09,2.53-3.57,4.11-4.28,4.91-3.84,4.33-5.7,8.76-6.53,10.76v.03h0Z"/>
    <path class="st4" d="M143.14,73.15c-.24,1,0,1.81.12,2.26.11.39.35,1.18,1.08,1.95-.58-1.06-.55-1.72-.42-2.38.17-.85.58-1.32,1.12-1.59.15-.07.59-.28,1.15-.19.47.07.76.32.97.49.19.16.55.47.71,1,.13.43.06.8,0,.98.21-.03.49-.1.8-.21.16-.06.48-.19.91-.47.33-.21.81-.58,1.35-1.2.13-.15.35-.41.63-.85l-.43-.25c-.17.32-.4.65-.73.98-.29.28-.57.48-.77.6,0-.4-.05-.99-.34-1.63-.18-.4-.61-1.34-1.7-1.79-.71-.29-1.34-.23-1.58-.21-.29.03-1.19.16-1.93.84-.64.6-.8,1.27-.91,1.69l-.03-.02h0Z"/>
    <path class="st6" d="M143.91,74.98c-.13.67-.16,1.33.42,2.38.23.24.69.73,1.47,1.05.89.38,1.68.34,2.16.32,1.19-.06,2.04-.46,2.95-.89.55-.26,1.32-.67,2.16-1.31.22-.21,1.15-1.16,1.48-1.52.89-.98,1.42-1.83,1.83-2.49.05-.08.1-.17.16-.25.37-.6.8-1.32,1.21-2.29.31-.73.78-1.83,1.03-3.33.02-.12.03-.23.05-.34.1-.8.11-1.5.13-2.27,0-.74,0-2.42-.23-4.07-.03-.1-.06-.2-.1-.3-.26-.8-.59-1.79-.8-2.68-.08-.35-.37-1.65-.44-3.38-.04-.97-.1-2.56.35-4.58.18-.8.4-1.5.61-2.07l-1.58-.49c-.87,2.29-1.2,4.09-1.56,6.09-.38,2.12-.51,3.7-.77,6.79-.09,1.09-.29,3.65-.66,6.68-.06.43-.21,1.69-.66,3.27-.36,1.28-.71,2.09-1.02,2.69-.2.38-.38.7-.55.96-.28.43-.5.7-.63.85-.54.63-1.02.99-1.35,1.2-.43.28-.75.41-.91.47-.31.12-.59.18-.8.21.06-.19.13-.55,0-.98-.15-.53-.52-.84-.71-1-.21-.17-.5-.41-.97-.49-.56-.09-1,.12-1.15.19-.54.27-.96.74-1.12,1.59h0Z"/>
    <path class="st4" d="M149.94,113.89c-.54,3.84-.31,7.02-.05,9.19,1.03,8.57,4.31,17.09,4.59,17.84,4.55,11.67,9.7,20.99,12.32,25.6,1.9,3.34,3.72,6.71,5.62,10.06,3.07,5.41,3.97,6.88,5.03,9.69.71,1.9,1.92,5.21,2.26,9.69.31,4.02-.22,7.08-.59,9.14-.69,3.82-1.75,6.51-2.96,9.6-1.65,4.23-3.57,7.92-4.93,10.51-.45.87-.84,1.61-1.15,2.16l.84.3c.71-.78,1.45-1.64,2.21-2.59,2.39-2.98,3.9-5.5,4.52-6.57,1.07-1.85,2.86-5.02,4.2-9.52.29-.98,1.4-4.81,1.64-9.98.13-2.64.24-5.01-.4-8-.52-2.37-1.3-4.1-3.49-8.18-3.07-5.71-4.52-7.88-7.39-12.96-.9-1.59-3.02-5.38-5.52-10.3-1.61-3.15-3.4-6.7-5.47-11.53-1.82-4.27-3-7.52-3.36-8.52-1.25-3.49-2.49-7-3.54-11.75-.8-3.63-1.07-6.05-1.15-6.84-.36-3.68-.22-6.17-.12-7.35.21-2.53.6-3.97.9-4.9.5-1.54,1.08-2.62,1.26-2.95.4-.74,1.15-2.08,2.58-3.5.77-.77,1.53-1.53,2.82-2.18.45-.22,1.89-.89,3.9-1,.69-.04,2.28-.05,4.08.61.91.34,1.58.74,2.23,1.19h0c-.59-.77-3.57-2.38-5.17-2.91-.61-.2-2.08-.52-3.89-.27-2.1.28-3.52,1.23-4.39,1.83-1.33.91-2.11,1.84-2.76,2.64-2.02,2.45-2.88,4.8-3.42,6.36-.25.71-.89,2.61-1.28,5.41l.03-.02h0Z"/>
    <path class="st4" d="M151.12,72.67l.43.25c.17-.26.36-.58.55-.96.31-.6.66-1.41,1.02-2.69.45-1.58.6-2.84.66-3.27.36-3.04.57-5.59.66-6.68.27-3.09.4-4.67.77-6.79.36-2.01.7-3.8,1.56-6.09,0,0,0-.02,0-.03.68-1.75,1.45-3.73,3.25-5.83,1.12-1.31,2.26-2.23,3.07-2.82-.34.11-.8.29-1.32.58-.35.2-.58.37-.95.64-.5.37-.98.72-1.47,1.22-.37.39-.62.73-.89,1.12-1.15,1.66-1.81,3-1.81,3-.91,1.83-1.54,3.59-1.98,4.98-.29.94-1.08,3.54-1.58,7,0,0-.37,2.6-.49,5.86-.06,1.55-.03,3.81-.03,3.81-.07.98-.4-1.28-.4-1.21,0,.18.03.39.04.62.08,1.31,0,2.29-.08,3.02-.19,2-.54,3.1-.79,3.72-.07.17-.15.36-.25.54h.02,0Z"/>
    <path class="st6" d="M151.9,49.32c-.34,1.86-.31,4.31-.26,9.19.02,2.07.09,2.91.18,3.67.14,1.18.29,1.68.37,2.58,0-.07.33,2.2.4,1.21,0,0-.03-2.26.03-3.81.12-3.26.49-5.86.49-5.86.5-3.46,1.28-6.06,1.58-7,.44-1.39,1.08-3.15,1.98-4.98,0,0,.66-1.34,1.81-3,.27-.39.52-.73.89-1.12.49-.51.96-.85,1.47-1.22.37-.27.6-.44.95-.64.52-.29.98-.47,1.32-.58-.81.58-1.95,1.5-3.07,2.82-1.79,2.1-2.57,4.09-3.25,5.83,0,0,0,.02,0,.03l1.58.49c.27-.73.52-1.25.64-1.48.84-1.7,1.82-2.85,2.22-3.3,1.32-1.48,2.6-2.33,2.94-2.56.69-.45,1.31-.77,1.78-.99.4.6.89,1.44,1.33,2.48.55,1.31.82,2.48.96,3.41.08.56.13,1.02.15,1.38s.13,1.68-.11,3.51c-.09.75-.24,1.58-.47,2.47-.31,1.23-.74,2.82-1.91,4.58-.57.85-1.02,1.53-1.74,2.09-.17.19-.68.84-1.02,1.18-.22.23-.4.39-1.03.97-.29.27-.64.59-1.05.96.15.22.4.52.73.84.31.29.82.78,1.65,1.11.31.13.85.34,1.57.34.82,0,1.41-.28,2.15-.65.43-.21.99-.52,1.61-1.02,0,.37-.05.91-.19,1.55-.23,1-.48,2.13-1.49,3-.22.19-1.14.97-2.41.96-.59,0-1.06-.19-1.54-.37-.8-.31-1.35-.72-1.62-.95-.38-.31-.65-.62-.83-.85-.04.28-.08.55-.11.8-.09.76-.11,1.41-.11,1.88,0,.59.03.85.08,1.07.08.41.25,1.2.94,1.94.77.82,1.7,1.09,2,1.17,1.05.26,1.91.04,2.39-.09,1.04-.28,1.73-.81,2.26-1.21.21-.16.55-.44.94-.84.64-.67,1.35-1.71,1.6-2.18.08-.24.15-.46.21-.65.37-1.24.54-2.25.73-3.4.15-.87.24-1.61.3-2.14-.02-.78-.13-1.9-.15-2.67.2-.41.45-.96.73-1.61.24-.57.6-1.43.95-2.53.24-.76.54-1.72.75-3,.22-1.38.21-2.43.2-3.24,0-1.17-.02-2.27-.35-3.7-.28-1.2-.65-2.06-1.15-3.2-.55-1.29-.91-1.96-1.47-2.89-.47-.78-.52-.9-.91-1.64-.34-.65-.8-1.63-.92-2.01-.15-.2-.33-.43-.53-.71-.52-.71-.8-1.13-1.36-1.76-.06-.08-.13-.14-.2-.21-.93-1-1.38-1.17-1.54-1.22-.17-.06-1.11-.36-1.89.12-.56.34-.74.88-.84,1.17-.2.58-.12,1.09-.06,1.33-.45.23-1.05.56-1.73.98-1.91,1.18-3.17,2.34-3.53,2.68-.96.89-2.3,2.32-3.46,4.25-1.73,2.87-2.21,5.43-2.53,7.23h-.02,0ZM165.99,59.59c-.46.24-.88.38-1.17.45.45-.4.98-.92,1.52-1.57.77-.93,1.24-1.73,1.45-2.08.64-1.13.94-2.05,1.19-2.84.21-.64.48-1.58.66-2.73.18-1.11.22-1.98.22-2.32.03-.82-.02-1.1-.02-2.16,0-.85.03-1.55.06-1.99.13.24.31.58.49,1.01.15.36.59,1.47.78,3.23.13,1.12.28,2.49-.13,4.24-.15.65-.48,1.99-1.47,3.43-.59.84-1.15,1.37-2,2.17-.58.54-1.01.87-1.58,1.17h0Z"/>
    <path class="st4" d="M156.54,72.26l.92.66c.76.64,1.45,1.1,1.98,1.42.74.45,1.31.78,2.17,1.04.53.16,1.19.35,2.05.25.58-.06.99-.23,1.34-.38.5-.2,1.34-.61,2.3-1.49.53-.49.93-.96,1.26-1.44s.6-.94.86-1.41c.61-1.09.98-2.06,1.22-2.79-.24.47-.96,1.51-1.6,2.18-.38.4-.73.69-.94.84-.53.4-1.22.93-2.26,1.21-.47.13-1.33.35-2.39.09-.3-.08-1.24-.34-2-1.17-.68-.74-.85-1.53-.94-1.94-.05-.23-.08-.49-.08-1.07,0-.48.02-1.12.11-1.88l-1.72-.1c0,.11-.03.23-.05.34-.24,1.5-.71,2.6-1.03,3.33-.41.97-.84,1.69-1.21,2.29v.02h.01Z"/>
    <path class="st10" d="M157.18,180.15c.02.08.11.36.16.54,0,0,1.22,4.18,1.75,8.64.89,7.58-.5,15.73-1.63,20.64l1.7.38c.98-3.81,1.98-8.83,2.36-14.81.71,1.18,1.4,2.38,2.11,3.56,0,.84-.02,1.95-.15,3.24-.26,2.62-.81,4.66-1.5,7.22-.37,1.38-.71,2.71-.84,3.22-.26.96-.65,2.19-.87,2.86h0c.54-1.39,1.16-3.02,1.79-4.78,1.34-3.72,2-5.58,2.51-7.69.78-3.22,1.04-5.83,1.14-6.97.03-.3.04-.56.06-.73l.07-.02c-.45-1.3-.82-2.18-.97-2.54-.37-.87-1.83-4.25-4.46-8.29-.87-1.35-1.82-2.64-3.21-4.45l-.02-.02h0Z"/>
    <path class="st9" d="M157.74,49.01c-.45,2.02-.39,3.61-.35,4.58.07,1.73.36,3.03.44,3.38.21.89.54,1.88.8,2.68.03.1.06.2.1.3.16.49.31.93.31.93.15.42.28.78.39,1.08.08-.14.22-.32.4-.54.41-.5.93-.98,1.63-1.44.98-.65,1.39-.66,2.1-1.07.21-.12.4-.25.57-.38.72-.56,1.17-1.24,1.74-2.09,1.17-1.75,1.6-3.35,1.91-4.58.23-.89.38-1.72.47-2.47l-1.96-.19c0,.06,0,.13,0,.19-.1-.18-.27-.45-.47-.77-.52-.81-.79-1.21-1.17-1.52-.65-.53-1.37-.69-1.7-.75-.98-.2-1.78-.02-2.16.09.16-.43.43-1.04.89-1.7.57-.82,1.16-1.33,1.72-1.83.43-.38,1.04-.87,1.83-1.37.65,1.31.91,2.43,1.02,3.22l1.98-.26c-.14-.93-.4-2.1-.96-3.41-.44-1.04-.94-1.88-1.33-2.48-.47.22-1.09.54-1.78.99-.34.23-1.62,1.08-2.94,2.56-.4.45-1.38,1.61-2.22,3.3-.12.23-.37.74-.64,1.48-.2.57-.43,1.28-.61,2.07h0ZM159.4,53.93c-.05-.73.02-.54.02-2.2,0,0,0-.87.11-1.77.02-.14.06-.41.21-.74.03-.07.06-.13.08-.17.07.21.17.49.33.82.16.3.27.53.47.78.27.31.54.49.88.71.21.13.52.32.96.49.24.09.65.25,1.2.28.36.03.91.06,1.49-.21.31-.14.52-.33.65-.46-.1.39-.26.93-.5,1.57-.23.62-.46,1.21-.89,1.92-.34.57-.64.92-1.08,1.45,0,0-.59.71-1.1.96-.02,0-.15.08-.27.14l-.24.12h-.02c-.15.06-.34.1-.34.11-.24.05-.65.29-.96.42-.03,0-.09.04-.17.03,0,0-.07,0-.12-.05-.03-.03-.1-.37-.11-.45,0-.09-.04-.35-.1-.6-.03-.11-.06-.2-.11-.39-.03-.12-.05-.22-.08-.43-.03-.14-.08-.41-.12-.66-.14-.89-.19-1.66-.19-1.66h0Z"/>
    <path class="st6" d="M157.89,74.35c0,.12.03.66.04.84.03.58.07,1.15.1,1.72l.07.41c.53.74,1.06,1.31,1.49,1.72.73.71,1.19,1.15,1.98,1.5.4.18,1.2.52,2.23.43.94-.08,1.59-.49,2.1-.82,1.12-.72,1.68-1.59,2.33-2.6.39-.6.85-1.32,1.18-2.38.27-.85.34-1.61.36-2.14-.15.35-.36.84-.67,1.39-.5.89-1.1,1.94-2.25,2.88-.66.53-1.45,1.18-2.7,1.37-.23.03-1.23.17-2.37-.23-.85-.3-1.38-.76-1.77-1.09-.68-.59-1.08-1.19-1.38-1.66-.18-.27-.39-.63-.54-.95-.03-.05-.08-.14-.13-.27,0-.03-.03-.07-.06-.12h-.01Z"/>
    <path class="st4" d="M158.83,66.29l1.72.1c.03-.25.07-.52.11-.8.18.23.45.54.83.85.27.23.82.63,1.62.95.48.18.95.36,1.54.37,1.27,0,2.19-.77,2.41-.96,1.01-.87,1.26-2,1.49-3,.14-.63.18-1.18.19-1.55-.61.49-1.18.81-1.61,1.02-.74.36-1.33.65-2.15.65-.72,0-1.26-.21-1.57-.34-.83-.33-1.35-.82-1.65-1.11-.34-.32-.58-.62-.73-.84.41-.37.76-.69,1.05-.96.63-.58.81-.74,1.03-.97.34-.34.85-.98,1.02-1.18-.17.14-.36.26-.57.38-.71.41-1.12.42-2.1,1.07-.71.47-1.22.95-1.63,1.44-.17.21-.31.4-.4.54-.11-.3-.24-.66-.39-1.08,0,0-.15-.44-.31-.93.23,1.64.24,3.32.23,4.07,0,.78-.02,1.48-.13,2.27h0Z"/>
    <path class="st8" d="M159.42,51.73c0,1.66-.07,1.48-.02,2.2,0,0,.05.77.19,1.66.04.25.09.52.12.66.03.21.06.32.08.43.05.19.08.28.11.39.06.25.08.51.1.6,0,.08.08.41.11.45.05.05.12.05.12.05.08,0,.14,0,.17-.03.31-.13.73-.37.96-.42,0,0,.19-.05.34-.11h.02s.08-.04.24-.12c.12-.06.25-.12.27-.14.51-.25,1.1-.96,1.1-.96.45-.53.74-.88,1.08-1.45.43-.71.66-1.31.89-1.92.24-.64.4-1.18.5-1.57-.13.13-.34.32-.65.46-.58.27-1.13.23-1.49.21-.55-.04-.96-.19-1.2-.28-.45-.17-.75-.36-.96-.49-.34-.22-.61-.39-.88-.71-.21-.25-.31-.47-.47-.78-.16-.33-.26-.61-.33-.82-.02.04-.05.1-.08.17-.15.33-.19.61-.21.74-.12.9-.11,1.77-.11,1.77h0Z"/>
    <path class="st8" d="M161.67,44.74c-.46.66-.73,1.27-.89,1.7.38-.11,1.19-.29,2.16-.09.34.06,1.05.22,1.7.75.38.31.64.71,1.17,1.52.21.32.37.59.47.77,0-.06,0-.12,0-.19.03-.46.06-1.06.07-1.76,0-.91,0-1.75-.13-2.68-.11-.78-.37-1.9-1.02-3.22-.79.5-1.4.99-1.83,1.37-.57.5-1.15,1.02-1.72,1.83h.01Z"/>
    <path class="st4" d="M164.82,60.04c.29-.08.71-.21,1.17-.45.57-.29,1.01-.62,1.58-1.17.86-.8,1.42-1.33,2-2.17.99-1.44,1.32-2.78,1.47-3.43.41-1.75.26-3.12.13-4.24-.19-1.76-.63-2.87-.78-3.23-.18-.43-.36-.77-.49-1.01-.03.45-.06,1.14-.06,1.99,0,1.06.05,1.34.02,2.16,0,.34-.04,1.21-.22,2.32-.18,1.15-.45,2.09-.66,2.73-.26.79-.56,1.72-1.19,2.84-.21.36-.68,1.16-1.45,2.08-.54.65-1.08,1.17-1.52,1.57h0Z"/>
    <path class="st9" d="M168.22,44.5l-1.98.26c.14.93.13,1.77.13,2.68,0,.7-.03,1.3-.07,1.76l1.96.19c.24-1.83.14-3.15.11-3.51s-.07-.82-.15-1.38h0Z"/>
    <path class="st9" d="M167.49,32.77c.06.07.13.14.2.21.56.63.84,1.06,1.36,1.76.2.28.38.51.53.71.46.6.74.93,1.06,1.36,1.04,1.38,1.61,2.59,2.71,4.92,1.03,2.2,1.54,3.29,1.86,4.67,0,.04.02.08.03.12.09-1.15.27-3.37.43-5.06.33-3.26.76-5.69.87-6.32.26-1.44.65-3.57,1.39-6.25.97-3.48,1.79-5.25,1.55-5.35-.32-.14-2.04,2.74-3.11,4.55-1.96,3.28-2.94,4.93-2.96,4.97-.24.5-.4.89-.54.87-.45-.08-.07-4.53.45-7.98.43-2.76.81-4.04,1.11-7.21.11-1.17.17-2.14.2-2.79-.21.39-.52.96-.89,1.66-1.56,2.9-2.33,4.35-2.99,5.7-2.09,4.31-2.67,6.58-2.85,7.31-.17.69-.31,1.44-.4,2.15h0Z"/>
    <path class="st4" d="M169.72,79.85c.02.31.05.78.09,1.33.08,1.29.13,1.96.21,2.7.03.31.13,1.03.37,2.38.26,1.42.49,2.78,1.14,5.53.12.5.32,1.28.61,2.29.14.49.73,2.14.82,2.42-.21-.91-.45-1.97-.73-3.24-.59-2.6-.88-3.94-1.15-5.9-.24-1.83-.34-3.35-.42-4.56-.12-1.84-.16-3.41-.18-4.62-.24.64-.5,1.2-.76,1.68h0Z"/>
    <path class="st4" d="M170.64,36.82c-.32-.43-.6-.76-1.06-1.36.12.38.58,1.36.92,2.01.38.74.44.85.91,1.64.55.93.91,1.6,1.47,2.89.5,1.14.87,1.99,1.15,3.2.33,1.42.34,2.53.35,3.7,0,.82,0,1.86-.2,3.24-.2,1.28-.5,2.23-.75,3-.35,1.09-.71,1.96-.95,2.53-.27.65-.52,1.2-.73,1.61.02.78.13,1.89.15,2.67,2.12-2.59,2.91-4.97,3.25-6.38.5-2.07.46-3.9.43-5.46-.03-1.18-.06-2.23-.34-3.57,0-.04-.02-.08-.03-.12-.31-1.39-.83-2.48-1.86-4.67-1.1-2.33-1.67-3.54-2.71-4.92h0Z"/>
    <path class="st3" d="M240.25,278.27c.09,1.54-.73,2.64-1.04,3.04-.38.51-1.31,1.71-2.93,1.94-1.39.19-2.5-.45-2.93-.7-2.44-1.42-2.87-4.34-2.95-5.41-.01-.16-.02-.27-.02-.34h0c-1.32.01-3.2.04-5.47.07-15.42.23-16.94.19-19.09,0-2.16-.19-6.95-.71-12.83-2.24-3.55-.93-6.76-1.77-10.55-3.61-7.48-3.63-12.08-8.64-14.26-11.07-1.79-1.99-3.75-4.55-7.67-9.67-.21-.27-.4-.53-.59-.78-1.8-2.37-2.59-3.44-4.09-4.99-1.21-1.25-4.02-3.98-8.02-6.41-5.52-3.34-10.56-4.45-15.7-5.53-1.46-.31-3.14-.62-5.02-.87-3.47-.49-7.62-.81-12.33-.69.84-.27,2-.6,3.38-.92.95-.22,4.98-1.11,10-1.14,9.85-.06,17.59,3.25,19.18,3.96,3.32,1.46,5.42,2.91,9.64,5.8,6.26,4.29,8.9,7.02,16.02,12.95,6.47,5.39,9.71,8.09,12.86,10.16,4.59,3.01,12.37,8.02,23.52,10.46,10.16,2.22,20.68,1.79,22.04,1.67.1-.01.77-.08,1.67-.06,1.13.02,2.32.03,3.67.51.87.3,2.04.71,2.81,1.82.62.88.68,1.75.7,2.07v-.02h0Z"/>
    <path class="st4" d="M230.4,277.14h-.03c-.8.2-2.16.54-3.55.86-2.87.67-7,1.61-9.35,2.1-2.08.43-6.86,1.42-12.08,1.85-5.8.47-11.28.92-17.88-.97-2.55-.73-7.88-2.31-12.57-6.62-2.12-1.94-3.49-3.87-4.75-5.64-1.9-2.66-2.71-4.39-5.22-9.21-3.03-5.8-3.18-6.53-4.78-8.96-.67-1.02-1.41-2.13-2.37-3.35-.06-.08-.13-.17-.19-.25-.63-.78-1.34-1.6-2.19-2.46-1.02-1.05-3.77-3.73-8.08-6.21-2.74-1.58-5.05-2.47-6.66-3.08-2.77-1.04-5.03-1.61-6.9-2.08-2.33-.58-5.18-1.16-6.7-1.42,1.88.26,3.56.56,5.02.87,5.14,1.08,10.18,2.19,15.7,5.53,4,2.43,6.81,5.16,8.02,6.41,1.5,1.55,2.29,2.62,4.09,4.99.84,1.32,3.22,5.04,4.73,7.29,2.49,3.71,3.71,5.57,5.37,7.63,2.39,2.98,3.95,4.91,6.67,7.1,4.37,3.52,8.54,5.11,9.95,5.61,2.09.74,3.7,1.08,5.26,1.4,2.58.53,8.95,1.64,17.29.87,2.02-.19,4.81-.62,10.39-1.5,1.4-.22,3.97-.63,7.45-.91,1.15-.09,2.26-.16,3.34-.2h.01c0,.06,0,.18.02.34h-.01Z"/>
    <path class="st1" d="M230.38,276.79h-.01c-1.08.06-2.19.12-3.34.21-3.48.28-6.05.69-7.45.91-5.58.87-8.36,1.31-10.39,1.5-8.34.78-14.71-.34-17.29-.87-1.56-.32-3.17-.66-5.26-1.4-1.41-.5-5.58-2.08-9.95-5.61-2.72-2.18-4.27-4.12-6.67-7.1-1.65-2.06-2.88-3.92-5.37-7.63-1.51-2.25-3.89-5.97-4.73-7.29.19.25.38.51.59.78,3.92,5.12,5.87,7.67,7.67,9.67,2.18,2.43,6.77,7.45,14.26,11.07,3.79,1.84,7,2.67,10.55,3.61,5.88,1.53,10.66,2.05,12.83,2.24,2.15.19,3.67.23,19.09,0,2.27-.03,4.15-.06,5.47-.08h0Z"/>
    <path class="st10" d="M167.79,268.35c1.36,3.28,3.29,8.07,1.77,12.6-.71,2.1-1.7,2.82-2.36,3.13-.96.47-2.29.63-3.52.17-.24-.09-1.18-.47-1.86-1.39-.33-.45-.51-.91-.69-1.74-.43-1.96-.33-3.48-.33-3.48.16-2.47.67-4.82,1.2-7.03.77-3.25,1.06-3.94,1.45-6.19.24-1.38.38-2.53.45-3.3,1.89,2.83,3.11,5.35,3.88,7.22h.01ZM167.95,277.52c.27-2.97-.29-4.97-.29-4.97-.44-1.57-1.29-3.96-3.07-6.73-.43,2.16-.84,3.87-1.13,5.01-.13.5-.68,2.67-.89,5.13,0,0-.14,1.74.71,3.11.09.14.22.32.43.49.69.52,1.63.36,1.95.31.26-.04,1.13-.18,1.72-.86.46-.53.54-1.13.57-1.5h0Z"/>
    <path class="st9" d="M167.65,272.55s.56,2,.29,4.97c-.03.36-.1.96-.57,1.5-.59.68-1.47.82-1.72.86-.31.05-1.26.21-1.95-.31-.22-.17-.34-.34-.43-.49-.84-1.37-.71-3.11-.71-3.11.2-2.47.76-4.64.89-5.13.29-1.13.71-2.85,1.13-5.01,1.77,2.76,2.63,5.16,3.07,6.73h0Z"/>
    <path class="st2" d="M161.13,256.58c.36,1.63.73,3.48.26,5.81-.29,1.44-1.05,5.24-4.75,7.3-3.27,1.83-6.67,1.06-7.04.98-3.18-.76-4.85-2.89-5.24-3.41-2.01-2.73-1.57-5.61-1.41-6.53.07-.4.65-3.52,2.96-5.18.41-.29,1.33-.95,2.71-1.15.5-.07,1.51-.14,2.88.16-.5-.09-1.28-.16-2.16.08-1.22.32-1.95,1.04-2.33,1.42-1.72,1.75-2.18,4.49-1.53,6.79.25.91.78,2.79,2.65,3.89,2.37,1.39,5.61.76,7.53-.65,2.97-2.16,2.76-6.08,2.65-8.28-.15-3.11-1.29-5.28-2.58-7.76-2.64-5.08-6.05-8.18-6.96-8.97-1.93-1.7-3.82-2.93-5.52-3.87,1.01.53,3.03,1.58,4.48,2.53,2.72,1.79,6.56,4.31,9.67,8.74,1.04,1.49,2.89,4.19,3.74,8.1h0,0Z"/>
    <path class="st4" d="M161.39,262.39c.47-2.34.1-4.18-.26-5.81-.84-3.91-2.7-6.61-3.74-8.1-3.11-4.44-6.95-6.95-9.67-8.74-1.45-.95-3.46-2-4.48-2.53-.08-.04-.15-.08-.21-.11-1.25-.67-2.39-1.19-3.39-1.64-5.08-2.3-9.46-3.08-11.73-3.47-2.94-.51-5.58-.69-7.09-.79-2.42-.16-4.49-.19-6.07-.18,4.71-.12,8.86.21,12.33.69,1.52.26,4.36.84,6.7,1.42,1.86.47,4.13,1.04,6.9,2.08,1.61.61,3.92,1.5,6.66,3.08,4.31,2.48,7.06,5.16,8.08,6.21.84.86,1.56,1.68,2.19,2.46.06.08.13.16.19.25.98,1.3,2.4,3.33,3.34,6.02.61,1.77,3.52,10.11-1.33,16.43-.8,1.04-2.72,3.54-6.23,4.39-5.28,1.28-9.66-2.27-10.07-2.62-1.1-.92-2.82-2.73-3.5-5.46-.13-.53-.94-4.09,1.29-7.57.52-.82,2-3.13,4.67-3.87,1.38-.39,3.04-.34,3.3-.34.93.03,1.96.22,2.46.43-.08-.02-.15-.03-.22-.05-1.38-.3-2.39-.23-2.88-.16-1.38.19-2.3.85-2.71,1.15-2.31,1.66-2.89,4.78-2.96,5.18-.16.93-.6,3.8,1.41,6.53.39.52,2.05,2.65,5.24,3.41.36.08,3.76.85,7.04-.98,3.7-2.06,4.46-5.86,4.75-7.3h0Z"/>
    <path class="st7" d="M158.32,257.81c.11,2.2.31,6.13-2.65,8.28-1.93,1.41-5.17,2.03-7.53.65-1.86-1.09-2.39-2.97-2.65-3.89-.65-2.3-.2-5.04,1.53-6.79.38-.38,1.11-1.1,2.33-1.42.88-.23,1.66-.17,2.16-.08.07,0,.14.03.22.05-.09-1.26-.4-3.19-1.47-5.3-.91-1.81-1.98-2.97-2.83-3.89-1.04-1.11-2.71-2.67-5.88-4.6-2.8-1.7-4.99-2.6-8.61-4.07-6.1-2.48-10.61-3.81-11.76-4.14-2.53-.72-4.72-1.24-6.41-1.61,1.58,0,3.65.02,6.07.18,1.51.1,4.15.28,7.09.79,2.27.39,6.65,1.17,11.73,3.47,1,.45,2.14.97,3.39,1.64.06.03.13.07.21.11,1.7.94,3.59,2.16,5.52,3.87.91.8,4.32,3.89,6.96,8.97,1.29,2.48,2.43,4.66,2.58,7.76v.02h0Z"/>
    <rect class="st0" x="-32.47" y="15.78" width="273.36" height="268.74"/>
  </g>
</svg>