<?xml version="1.0" encoding="utf-8"?>
<!-- Generator: Adobe Illustrator 28.2.0, SVG Export Plug-In . SVG Version: 6.00 Build 0)  -->
<svg version="1.1" id="Layer_1" xmlns="http://www.w3.org/2000/svg" xmlns:xlink="http://www.w3.org/1999/xlink" x="0px" y="0px"
	 viewBox="0 0 300 300" style="enable-background:new 0 0 300 300;" xml:space="preserve">
<style type="text/css">
	.st0{fill:#FFFFFF;}
	.st1{fill:#656767;}
</style>
<path class="st0" d="M150,0C67.1,0,0,67.1,0,150s67.1,150,150,150s150-67.1,150-150C299.9,67.1,232.9,0.1,150,0z"/>
<g>
	<path class="st1" d="M150,0C67.1,0,0,67.1,0,150s67.1,150,150,150s150-67.1,150-150C299.9,67.1,232.9,0.1,150,0z M150,295.9
		C69.4,295.9,4.1,230.6,4.1,150S69.4,4.1,150,4.1S295.9,69.4,295.9,150C295.7,230.6,230.6,295.7,150,295.9z"/>
	<path class="st1" d="M238,138.6c-2-4.4-0.7-7.3-1.3-10.4c-0.6-3.1-3.9-10-6.1-15.4c-1-2.4,5.4-1.9,0.6-10.9c0-0.3,6.7-2.9,0-7.9
		c-3.4-2.7-6.3-5.9-8.6-9.6c-0.4-0.6-0.4-1.3,0-1.9c3.9-3.4,4-8.3-0.1-10.7s-6.4,0-9.6,2c-1,0.7-1.6,1.1-2.7,0.7l-2.6-1.7
		c3.9-3.7,4.7-7.4,4.4-8s-6.6-1.9-14.6,1.4l-0.6-0.4c3.3-5.6,1.4-9.6,1.3-9.9H198c5.1-7,11.1-13.3,17.7-19h0.1
		c0.3-0.4,0.4-0.9-0.3-1.3l-1.4-0.9C150.4-0.4,70,22.6,34.7,86.3c-10.9,19.4-16.6,41.4-16.6,63.7c0,42.1,21.4,82.7,56.3,108
		c1.3,0.9,2.6,1.7,4,2.3c0.6,0.1,1.1,0.1,1.6-0.3l0.4-0.7c0.3-0.3,0.4-0.7,0.4-1.1c0-1-1.3-1.9-3-4.3c-4.3-6.4-6.6-13.9-6.7-21.6
		c-0.1-7,2.1-14,6.4-19.6c5.3,5.6,16.7,15.6,16.4,24.9c-0.3,9.3-9.9,9.7-7.7,17.4c1.3,4.9,4.9,2.9,5.6,6.6c1,6.3,9.6,10.4,13.3,9.9
		c1-0.1,1.7,0.6,3.4,2.4c1.7,1.9,8.9,2.3,11.7,1.7s5.9,2,11.4,1.3c5.6-0.7,8.7-1.3,11.7-1.3c3,0,32.1-0.4,51.4,2.6
		c3.4,0.6,4.4-1,3-3.6c-7-12.3-8-22.6-4-35.7c7.1,0.6,17.4,2.4,30.9-5.7c4.6-3,7.4-8.1,7.3-13.6c-0.1-3-1.4-6.7-0.7-9.6
		c0.7-2.9,1.9-3.9,3-4.6c5.1-3.7,1.4-6.6,0.6-6.9c2.1-1.4,2.9-4.3,1.6-6.6c-1-1-3.9-8.9-0.6-10.4s7.6-2.6,11.6-4.4
		c3.3-1.3,4.9-5.1,3.6-8.4c0,0,0-0.1-0.1-0.1C248.9,163.4,238.3,139.1,238,138.6z M92.4,255.9c-1,0.3-4.1,0.4-3.4-3.9
		c0.7-4.3,3.3-3.7,4.7-2.3S92.7,253.7,92.4,255.9z M216.7,76c1.7-1.1,3.6-1.6,4.7-0.6c3.7,3.7-4.1,5.9-2.6,8.7
		c2.9,4.6,6.4,8.7,10.7,12c1.7,1.4,2,4.4-4.7,5.9c-6.7,1.4-33.7,8.4-48,23.6c-17.9,18.9-29.1,43.3-30.7,40s-5.1-4-4.6-5
		C167.1,116.6,207.3,81.9,216.7,76z M228.4,107c-1.4,4.1-13,7.9-12.4,5c0.6-2.9,0-3.1,0.9-3.3c0.9-0.1,5-1.6,10.7-3
		C228.1,105.6,228.9,105.9,228.4,107L228.4,107z M199,114.6c-0.3-1.7,12.1-5.9,12.6-4.7c0.4,1.1-2.6,8.6-6.7,10
		c-4.1,1.4-6.7,1.3-6.6,0.6C198.9,118.6,199.1,116.6,199,114.6L199,114.6z M170,179.7c-5.7,3.6-8.9-3.1-9.7-4.4
		c-0.9-1.3-1.1-2.9-0.7-4.4c0.4-2,0.7-4.7-0.6-13.3c-0.6-3.9,7.1-13.1,9-14.9s4.4,0.9,4.6,3.7c0.4,5.1-2.6,8-5.6,10.3
		c-3,2.3-4.4,6.3-3.7,7.3c1.1,0.4,2.3-0.1,2.7-1.3c2.1-4.7,8.6-7,9.6-9.6s0.4-6.3,0.3-8c-0.1-1.7,1.3-1.7,2.3-1.6c1,0.1,2,2,2.6,3.9
		c4.1,10.7-6.1,17.1-7.9,19.7C171.1,169.7,174.4,177,170,179.7z M178.7,138.1c-3.1,2.1-7.6-0.7-6.7-2c4.4-6.1,10-11.6,16.4-15.7
		c4.9-3,5.4-3.3,5.7-1.6c0.1,3.9-1.1,7.7-3.7,10.7c-3.3,3.6-6.6,3.3-8.3,3.7C180.4,133.7,181,136.6,178.7,138.1L178.7,138.1z
		 M151.1,174.7c-1.4-0.3-2-3-1.7-4.1c0.3-1.1,4.4-7.4,5.7-9.1c0.3-0.3,0.7-0.1,1,0.1c0,0.1,0.1,0.1,0.1,0.3
		C157.1,167.7,156.3,175.9,151.1,174.7z M197.1,68.9c3.4-1.6,7-2.3,10.7-2.3c1.1,0.1-2.7,6.9-9.4,9.7c-6.7,2.9-12.1,3.6-12.7,3.3
		C185.1,79.3,191.6,71.3,197.1,68.9z M78.1,180.7c-2.1-2.4-4-3.7-4.1-3.6c-2.6,3.9-4.4,8.1-5.1,12.7c-6.4-12.3-10.1-26-10.7-39.9
		c-2-50.6,40.4-91.3,92.1-91.1c11,0,21.9,2.3,32,6.6c-2.1,2.9-3.9,6.1-5.3,9.4c0-2.7-0.7-4.9-0.6-6.6c0.1-1.7-7.3,1.3-13.9,11.9
		c-1.4,2.4-2.4,4.9-3.1,7.6c-0.1-4-1-7-1.3-7c-5.6,2.4-9.9,7-12.1,12.6c-0.7,1.6-1.1,3.1-1.6,4.9c-0.3-2.7-1-4.6-1.3-4.6
		s-8.4,3.3-12.3,12.7c-0.9,2.1-1.4,4.3-1.6,6.6c-0.7-3.3-2-5.3-2.4-4.9c-2.7,3.4-8.1,5-10.9,13.7c-0.7,2-1,4-1,6
		c-1.1-2.9-2.9-4.6-3.3-4.6c-0.4,0-8.7,7.9-10,15.6c-0.4,2.7-0.3,5.6,0.3,8.3c-1.6-2.6-3.6-4.3-4.4-6.9c-1.3,0.7-8.1,7.1-8.3,15.3
		c-0.1,3,0.1,5.9,1,8.7c-2.3-4.1-5.4-6-5.9-5.9c-0.4,0.1-5.7,5.9-6.9,15.9C77.3,176.3,77.6,178.6,78.1,180.7z M184,66.9
		c4-4.9,10.9-8.7,11.7-8.3c0.9,0.4-1.1,8-5.6,12.3c-4.4,4.3-11.6,8.9-12.3,8.7C177.1,79.4,180.3,71.1,184,66.9z M170.7,85.4
		c-3.3,2.4-6,5.6-8,9.1c-0.7,1.3-2.7-7.1,2.4-15.1c3.1-5,9.4-9.4,9.3-8.9S177.4,80,170.7,85.4z M156.3,96.1
		c-4.9,7.3-5.1,4.7-10.4,11.9c-0.3,0.3-0.3-9.3,1.6-13.4c3-6.7,8.1-10.6,8.9-10.7C157,83.7,159,92.1,156.3,96.1z M140.4,110.6
		c-2.4,4.3-4.7,3.3-8.9,9.6c-0.4,0.6-1.6-5.1,1-13c1.4-4.3,4.4-7.7,8.4-9.9C141.9,97.1,143.4,105.4,140.4,110.6z M125.7,125.9
		c-2.6,5.6-4.1,5.7-7.1,9.1c-0.4,0.6-2.6-5.3-0.6-12.6c2-7.3,5.7-8,7.6-10C127.4,110.4,128.4,120,125.7,125.9z M113.7,135.3
		c0,1.4-0.1,2.9-0.6,4.3c-1.9,6.1-5.6,8.9-7.6,11.6c-1.3-2.6-2-5.4-2.3-8.3c0.1-6.1,2.9-12,7.4-16
		C111.9,126.9,113.7,131.4,113.7,135.3z M101.6,153.6c-0.1,6-2.9,11.6-7.3,15.4c-1.9-3.3-2.9-7-3.1-10.9c-0.3-9,3.4-12.1,5.1-13.9
		C97,146.9,101.6,148.9,101.6,153.6z M84.3,162.6c2.6,1.3,5.6,4.9,5.9,11.7c0.3,6.9-4.6,12.4-6.6,13.4c-1.3-5.3-3.7-6.3-3.7-11.4
		C80,171.4,81.6,166.6,84.3,162.6z M94.7,180.4c6.6-2.9,13.7-2.4,14-2.1s-2.1,8.4-8.4,11.7c-6.3,3.3-13.6,3.9-14.3,3
		S88.1,183.3,94.7,180.4z M94.1,175.6c0.4-2.1,4.3-9.3,10.1-11.9l0,0c4.1-1.9,8.9-2.6,13.4-2.1c0.7,0.3-2.4,8-8.3,10.9
		C103.6,175.3,100.1,173.7,94.1,175.6z M104,158.7c0.3-0.6,5-9.1,10.6-11.7c4-1.7,8.4-2.4,12.7-2c0.4,0.1-2.6,7.7-8.9,10.9
		C112.1,159,103.7,159.4,104,158.7z M116.7,141.7c-0.4-0.3,6.3-9.1,12-11.9c3.9-1.6,8-2,12-1.4c0.4,0.4-2.7,7.9-9.3,10.7
		C126.7,141,121.7,142,116.7,141.7L116.7,141.7z M132,124.9c-0.3-0.3,4.9-9,10.6-11.3c5.7-2.3,11-0.1,12.7,0
		c1.7,0.1-1.9,6.4-9.4,9.1C138.3,125.4,133,125.3,132,124.9z M149.1,108.6c0.1-0.4,5.9-8.4,11.6-10.4c4.3-1.3,8.9-1.4,13.1-0.3
		c0.7,0.3-4,7.1-11,9.3C155.9,109.3,149,109,149.1,108.6z M166.4,94.4c-0.7-0.4,6.1-8.1,11.7-10.3c3.7-1.4,7.9-1.9,11.9-1.4
		c0.4,0.3-3.6,7-10.1,9.6C173.3,94.9,167.3,95,166.4,94.4z M71.7,250.4C40.9,225.9,22.3,188.7,22.3,150
		c-0.1-70.4,57-127.7,127.4-127.7c20.7,0,41.1,5,59.4,14.6c0.3,0.1,0.4,0.4,0.3,0.7c0,0.1-0.1,0.1-0.1,0.3
		c-5.3,5-10.1,10.4-14.6,16.3c-14-6.6-29.3-10-44.7-10C91.6,44.3,44.3,91.6,44.1,150c-0.3,25.3,8.9,49.9,25.6,68.9
		c-1.9,4.3-2.7,8.9-2.7,13.4C67,238.6,68.6,244.9,71.7,250.4z M72,215L72,215c-15.6-18.1-23.9-41.3-23.6-65
		C48.6,94,94,48.6,150,48.4c14.6,0,29,3,42.3,9.1c-2.1,1-4,2.3-5.9,3.7c-11.6-5-23.9-7.4-36.4-7.3c-53,0.1-95.9,43-96,96
		c0,23,7.1,43.1,21.1,60C74.4,211.3,73.3,213,72,215z M77,207c-1.9-1.7-5.9-6.1-6.3-11.9v-0.9c0-6.1,2.7-12.3,3.4-12.9
		s7.6,4.7,7.7,12.4C81.9,198.7,80.1,203.3,77,207z M88.4,196.7c5.6-2.6,13.7-2,13.3-1.6c-0.4,0.4-2.6,8.3-8.9,11.4
		c-3.7,2.1-8.1,2.9-12.4,1.9C83.7,204.7,83,199.3,88.4,196.7z M95.9,263.1c-0.9-3.9-0.6-9,0.7-10.4c1.3-1.4,7-1.7,7.1-0.1
		c0.1,1.6-1.6,7.7,0.4,14.6C103.7,268.1,97.6,267.7,95.9,263.1z M96.3,247.3c-0.4-2.9,2.3-5.6,2.3-11.7c0-6.1-9.4-18-15.9-24.7
		c3.9-0.1,7.7-1,11.3-2.7c9.4-4.4,11.3-14.4,11.6-14.9c-1.7-0.6-3.6-0.7-5.4-0.6l1.1-0.6c9.1-5,11.6-15.7,11.1-15.9
		c-1.9-0.4-3.9-0.6-5.7-0.4l2.9-1c9.7-3.9,12.4-14.7,12.1-15.1c-1.6-0.4-3.3-0.6-5-0.6l2.7-1.1c8.9-4.4,12-14.4,11.6-14.7
		c-1.6-0.4-3.1-0.6-4.7-0.6c2.1-0.4,4.4-1.3,6.4-2.1c9.6-4.1,12.7-13.3,12.3-13.7c-1.4-0.4-2.9-0.7-4.3-0.7c2.1-0.4,4.3-1.1,6.3-1.9
		c9.4-3.1,13.1-12.1,12.6-12.3l-5.3-1.1c3.1-0.1,6.4-0.9,9.4-1.9c10.1-3.4,13.7-9.6,14-12.3c-1-0.6-2.1-1-3.3-1.1
		c2.3-0.4,4.6-1,6.7-1.7c9.4-3.9,13.4-13.3,13.7-14c1.9-0.6,3.7-1.4,5.6-2.3l2.7-1.3l2.3,1.6c1.4,0.9,2,1.1,1.3,1.7
		c-32.4,27.6-56.7,62.6-67.3,79.4c-0.3,0.6-0.9,0.4-1.9,0.4c-11.3-0.9-17.7,12.7-12.7,25.4c-0.6,2.6-6,7.6-6.4,7.9
		c-0.4,0.3-1.4,2,0.4,1.9c1.9-0.1,6-4.6,7.7-6.4c0.6,0.9,3.1,2.9,1.9,4c-5.9,5.9-12.6,11-19.9,15c-3.7,1.7,6,3,22.4-11.9
		c1-0.9,2.1,3.4,3.6,5.3c-2.9,9.3,4.1,27.3,3,32.9c-0.1,2.1-1.9,3.9-4,3.9c-16.3,0.4-17.9-0.4-26.1,2c-3.9,1.1-2.9,3.7-0.1,3
		c2.7-0.7,6.6-2.1,24.1-1c4.4,0.1,9.3-0.9,9.3-8.1c0-7.3-5.1-26.3-3.4-29c1.4,1.1,3.1,1.9,5,2c-0.3,6.4,10,27.1,5.4,38.6
		c-1.7,4.3-9.1,3.9-22,2.6C103.9,245.1,96.7,249.9,96.3,247.3L96.3,247.3z M146.4,261.4c-8.4,2.9-11.9-7-10.4-9.1
		c1.4-2.1,6.3,1.4,10.4-1.3C150.6,248.3,151.4,259.7,146.4,261.4L146.4,261.4z M107.9,267.6c-1.1-5.3-1.6-14.3,0.6-16.4
		c2.1-2.1,7-1.3,6.9,0.3c-0.4,6.1-3,13.1,1.7,20.1C118.9,274.3,109.6,274.7,107.9,267.6L107.9,267.6z M124.1,273.6
		c-2.3-0.6-8.6-10.6-3.4-22.6c0.4-1.1,8.3-0.4,9.7,0s-1.1,9.7,9.7,14C141.1,265.4,140,277.6,124.1,273.6L124.1,273.6z M191.6,240.3
		c-3.6,12.6-5.4,17.6,0,31.3c0.7,1.9,1.3,3.3-0.3,3c-11-2-13.4-3.7-48.1-0.9c-2.4,0.3,0.9-4.9,0.4-8.3c3.1-0.4,8.3-1.9,9.3-7
		c1-5.1-3-10.9-2.6-11.7c5-9.6-0.3-20.1-4.4-38c-0.4-1.7,0.6-2.4,1.3-1.6c22.3,24.1,36.4,28.9,44.1,31.1
		C192,238.6,191.9,239.4,191.6,240.3L191.6,240.3z M248.6,174.4c-4.7,4.1-11.9,4.4-14.7,7c-2.9,2.6-2.1,3.6-0.6,7.4
		c1.6,3.9,1.6,2.4-1.6,3.3c-3.1,0.9-5.9,8.3-12.6,7c-2.6-0.4-0.7,1.1,0.3,1.3c3.7,0.4,5.3-0.7,6.6-2s3.1-3.4,5.1-4.1
		c2-0.7,4.1-0.7,4.3,0.9c0.1,1.6-2.7,3-3.9,3.6c1.4,0.7,5.6,2.7,2,5.1c-3.6,2.4-6.6-0.7-7-1c-0.4-0.3-2.4-0.3-1.9,0.4
		c0.6,0.7,7.4,1.9,6.4,3.1c-5,6.7-0.9,10.7-2.4,17.6c-1.6,6.9-11,10.7-18.3,12c-24.9,4.4-49-16.6-63.1-32.6c1.3-3,1.1-6.9-0.1-5.4
		c-1.3,1.4-1,3.4-4,4.1c-5.6,1.4-8.1-8.4-9.9-10.1c-6.9-6.7-9.6-16.3-5.6-24.7c4-8.4,12.9-6.7,16.3-1.6s2.4,10,4.9,11.9
		c2.4,1.9,6.9,0.3,7.7,0s2.4,6.1,11.4,5.9c9-0.3,8.4-15.3,9.9-16.6c12.3-12,6-22.7,3.7-25.1c-2.3-2.4,1.4-5.1,2.1-5.3
		c6-1.3,11-5.3,13.4-11c0,0,12-0.3,16.3-8.9c1.1-2.3,4.7,2.1,12.7-4.1c0.4-0.4,1.1-0.6,1.6-0.1c0.1,0.1,0.3,0.4,0.4,0.6
		c5.3,12.7,7.4,16.1,7,22.6s12.4,30.7,13.4,33S249.7,173.3,248.6,174.4z"/>
	<path class="st1" d="M219.7,128.6c-7,0.3-15.1,8.9-17.7,10c-2.6,1.1-1.9,2.1-0.3,1.6c1.6-0.6,8.4-6.7,15.3-9.1s5.1,2.6,7.1,2.3
		C226.1,133,223.7,128.4,219.7,128.6z"/>
	<path class="st1" d="M221.3,135.4c-0.6,0.1,0.6,3.1-2.4,3.3c-6.6,0.4-11.9,6.7-15.9,8.6c-1.7,1-3.6,1.6-5.4,2
		c-0.3,0-0.4,0.3-0.3,0.6c0,0.3,0.3,0.4,0.6,0.3c16.7,2.3,23.1,1.6,23.3,1c0.1-0.6-0.9-1.7-0.6-2.4c0.7-2.6,0.7-5.3,0.1-7.9
		c-0.3-1.1,2.6-0.4,2.6-1.9C223.3,137.6,222.3,135.3,221.3,135.4z M218.7,148.7c-0.3,1.3-7.9,0.7-11.9,0.3c-1,0-2.6-0.1,0.4-2
		c3-1.9,5.9-4,10.3-4.9c0.6,0,1,0.3,1.1,0.9C219.1,144.9,219.1,146.9,218.7,148.7L218.7,148.7z"/>
	<path class="st1" d="M240.6,172.6c-1.3,0-6.4,2.3-8.4,3.6c-2,1.3-6.3,3.9-6-1.1c0.1-1.9,1.3-6.3,1.3-7.6s-1.4-1-1.6,0
		c-0.1,2.6-0.4,5.1-1,7.6c-0.6,2.6,1.7,5.7,5.1,3.9c3.4-1.9,6.9-4.1,10.4-4.9C241.3,173.9,241.4,172.6,240.6,172.6z"/>
	<path class="st1" d="M143.6,190.9c-1-0.4-0.7,1.7-2,1.4c-1.3-0.3-0.3-1.9-2.6-4.3c-2.3-2.4-4-1.7-6.1-5.1
		c-2.1-3.4-0.4-17.1,4.4-15.4s2.3,7.1,1.4,11.4c-0.9,4.3,3.6,4,4,3s-1.6-1.3-2-2.7s5-10.9-2.6-13.4c-5.4-1.9-9.1,5.1-8.4,12.7
		c0.1,4.6,3,8.6,7.3,10.1c3.3,1.1,0.9,5.7,5.3,5.7C144.3,194.3,144.7,191.3,143.6,190.9z"/>
	<path class="st1" d="M187.6,47.7c0.3,0.1,0.4,0,0.7-0.1l9.3-11.9c0.1-0.3,0-0.7-0.3-0.9l-1.6-0.6c-0.3-0.1-0.6,0-0.7,0.1l-9.3,11.9
		c-0.3,0.3-0.1,0.7,0.3,0.9L187.6,47.7z"/>
	<path class="st1" d="M170.3,42.9l1.6,0.4c0.3,0,0.6-0.1,0.7-0.4l5.4-13.4c0.1-0.3,0-0.6-0.1-0.7c0,0-0.1,0-0.3-0.1l-1.7-0.3h-0.4
		L169.9,42c-0.1,0.3,0,0.6,0.1,0.7S170.1,42.9,170.3,42.9z"/>
	<path class="st1" d="M151.1,41h1.6c0.3,0.1,0.6-0.1,0.6-0.4l1.4-14.3c0-0.3-0.3-0.7-0.6-0.7h-1.6c-0.4,0-0.6,0.3-0.7,0.6l-1.3,14.3
		C150.6,40.7,150.9,41,151.1,41L151.1,41z"/>
	<path class="st1" d="M132.6,42.4l1.6-0.3c0.3,0,0.6-0.3,0.4-0.6l-2.7-14.1c0-0.3-0.3-0.6-0.6-0.4h-1.7c-0.3,0.1-0.6,0.4-0.4,0.7
		l2.7,14.1C131.9,42.3,132.1,42.4,132.6,42.4z"/>
	<path class="st1" d="M113.4,46.9l0.7,0.3l1.6-0.6c0.3,0,0.6-0.3,0.6-0.6c0-0.1,0-0.1-0.1-0.3l-6.6-12.9c-0.1-0.3-0.4-0.4-0.7-0.3
		l-1.4,0.4c-0.3,0-0.6,0.3-0.6,0.6c0,0.1,0,0.1,0.1,0.3L113.4,46.9z"/>
	<path class="st1" d="M95.7,55c0.1,0.3,0.4,0.3,0.7,0.1l1.4-0.9c0.3-0.1,0.4-0.6,0.1-0.7c0,0,0,0,0-0.1l-9.6-11
		c-0.3-0.3-0.6-0.3-0.7-0.1l-1.4,0.9c-0.4,0.1-0.4,0.6-0.1,0.9L95.7,55z"/>
	<path class="st1" d="M79.1,66.7c0.3,0.1,0.6,0.1,0.7-0.1l1.3-1c0.3-0.3,0.3-0.7,0-1L69,56.1h-0.7L67,57.3c-0.3,0.3-0.3,0.7,0,1
		L79.1,66.7z"/>
	<path class="st1" d="M64.9,81.6c0.3,0,0.4-0.1,0.6-0.3l1.1-1.3c0.3-0.3,0.1-0.7-0.3-0.9l-14-5.4c-0.3-0.1-0.6-0.1-0.7,0.1l-1,1.3
		c-0.3,0.1-0.3,0.6,0,0.9c0.1,0.1,0.1,0.1,0.3,0.1L64.9,81.6z"/>
	<path class="st1" d="M38.3,96.9l15,2.1c0.3,0,0.6-0.1,0.6-0.4l0.9-1.4c0.1-0.3,0-0.6-0.1-0.7c0,0-0.1,0-0.3-0.1l-15-2.1l-0.7,0.3
		c-0.1,0.6-0.4,1.1-0.7,1.6c-0.1,0.3,0,0.6,0.1,0.7C38.1,96.9,38.1,96.9,38.3,96.9z"/>
	<path class="st1" d="M30.1,119.6l15.3-1.4c0.3,0,0.4-0.1,0.4-0.4l0,0c0.3-0.6,0.4-1,0.6-1.6c0.1-0.3,0-0.6-0.1-0.7
		c-0.1,0-0.3-0.1-0.4-0.1l-15.4,1.4l-0.6,0.4l-0.4,1.7C29.4,119.3,29.7,119.7,30.1,119.6z"/>
	<path class="st1" d="M41.7,137.9c0-0.6,0.1-1.3,0.1-1.9s-0.3-0.7-0.7-0.6l-14.9,5.1c-0.3,0.1-0.4,0.3-0.4,0.6s-0.1,1.1-0.1,1.7
		c0,0.3,0.1,0.6,0.4,0.7c0.1,0,0.3,0,0.4-0.1l14.7-5.1C41.6,138.3,41.7,138.1,41.7,137.9L41.7,137.9z"/>
	<path class="st1" d="M41.3,158.3v-1.9c0-0.4-0.4-0.7-0.9-0.6c-0.1,0-0.1,0-0.1,0l-13.4,9c-0.3,0-0.3,0.3-0.3,0.6s0.1,1.1,0.1,1.7
		c0.1,0.4,0.6,0.6,0.9,0.4h0.1l13.4-8.9C41.3,158.6,41.4,158.4,41.3,158.3z"/>
	<path class="st1" d="M44.7,178.6l-0.4-1.9c0-0.3-0.3-0.6-0.7-0.4c-0.1,0-0.3,0.1-0.3,0.1l-11,12.1c-0.1,0.1-0.3,0.4-0.1,0.6
		c0.1,0.1,0.4,1.1,0.6,1.7c0,0.3,0.3,0.6,0.7,0.4c0.1,0,0.3-0.1,0.3-0.1l10.9-12C44.7,179,44.7,178.9,44.7,178.6z"/>
	<path class="st1" d="M50.3,196.7l-7.7,14.7c-0.1,0.1,0,0.4,0,0.6l1,1.7c0.1,0.3,0.6,0.3,0.9,0.1c0.1,0,0.1-0.1,0.1-0.3l7.7-14.6
		c0-0.1,0.1-0.3,0-0.6l-0.9-1.7c-0.3-0.3-0.7-0.4-1-0.1C50.4,196.6,50.3,196.7,50.3,196.7z"/>
	<path class="st1" d="M61.3,213.3c-0.3-0.4-1-0.3-1,0.1l-4.1,17.1c-0.1,0.3,0,0.4,0,0.6l1.4,1.4c0.1,0.3,0.6,0.3,0.9,0.1
		c0.1,0,0.1-0.1,0.1-0.3l4-17c0.1-0.1,0-0.3,0-0.4L61.3,213.3z"/>
</g>
</svg>
