<?xml version="1.0" encoding="UTF-8" standalone="no"?>
<!-- Generator: Adobe Illustrator 12.0.1, SVG Export Plug-In . SVG Version: 6.00 Build 51448)  -->
<svg
   xmlns:dc="http://purl.org/dc/elements/1.1/"
   xmlns:cc="http://web.resource.org/cc/"
   xmlns:rdf="http://www.w3.org/1999/02/22-rdf-syntax-ns#"
   xmlns:svg="http://www.w3.org/2000/svg"
   xmlns="http://www.w3.org/2000/svg"
   xmlns:sodipodi="http://sodipodi.sourceforge.net/DTD/sodipodi-0.dtd"
   xmlns:inkscape="http://www.inkscape.org/namespaces/inkscape"
   version="1.1"
   id="Layer_1"
   width="325.326"
   height="303.229"
   viewBox="0 0 325.326 303.229"
   overflow="visible"
   enable-background="new 0 0 325.326 303.229"
   xml:space="preserve"
   sodipodi:version="0.32"
   inkscape:version="0.44.1"
   sodipodi:docname="logoblauorange.svg"
   sodipodi:docbase="/home/mueller/LOGOS/mpipks"><metadata
   id="metadata2080"><rdf:RDF><cc:Work
       rdf:about=""><dc:format>image/svg+xml</dc:format><dc:type
         rdf:resource="http://purl.org/dc/dcmitype/StillImage" /></cc:Work></rdf:RDF></metadata><defs
   id="defs2078" /><sodipodi:namedview
   inkscape:window-height="948"
   inkscape:window-width="1280"
   inkscape:pageshadow="2"
   inkscape:pageopacity="0.0"
   guidetolerance="10.0"
   gridtolerance="10.0"
   objecttolerance="10.0"
   borderopacity="1.0"
   bordercolor="#666666"
   pagecolor="#ffffff"
   id="base"
   inkscape:zoom="2.8284271"
   inkscape:cx="181.36211"
   inkscape:cy="205.05572"
   inkscape:window-x="0"
   inkscape:window-y="0"
   inkscape:current-layer="g2041" />
<g
   id="g2041">
	<path
   fill="#034EA2"
   d="M152.505,127.643c-4.338-6.658-2.46-15.558,4.196-19.877c6.655-4.32,15.568-2.424,19.906,4.234   s2.46,15.558-4.196,19.877C165.755,136.196,156.843,134.301,152.505,127.643L152.505,127.643z"
   id="path2043"
   style="fill:#03f;fill-opacity:1" />
	<path
   fill="#034EA2"
   d="M126.596,88.548c-3.417-5.24-1.942-12.245,3.295-15.646c5.237-3.399,12.253-1.907,15.671,3.334   c3.417,5.24,1.941,12.245-3.296,15.645S130.013,93.789,126.596,88.548L126.596,88.548z"
   id="path2045"
   style="fill:#03f;fill-opacity:1" />
	<path
   fill="#034EA2"
   d="M98.512,58.197c-2.789-4.278-1.583-9.996,2.693-12.771c4.277-2.775,10.004-1.558,12.793,2.72   c2.789,4.278,1.583,9.996-2.694,12.772C107.028,63.693,101.301,62.476,98.512,58.197L98.512,58.197z"
   id="path2047"
   style="fill:#03f;fill-opacity:1" />
	<path
   fill="#034EA2"
   d="M69.598,36.688c-2.277-3.492-1.294-8.16,2.196-10.426s8.166-1.271,10.444,2.222   c2.278,3.492,1.295,8.16-2.195,10.426S71.876,40.181,69.598,36.688L69.598,36.688z"
   id="path2049"
   style="fill:#03f;fill-opacity:1" />
	<path
   fill="#034EA2"
   d="M0.677,6.401C-0.578,4.48-0.038,1.914,1.883,0.668S6.379-0.03,7.634,1.891s0.715,4.488-1.207,5.733   C4.507,8.87,1.932,8.322,0.677,6.401L0.677,6.401z"
   id="path2051"
   style="fill:#03f;fill-opacity:1" />
	<path
   fill="#034EA2"
   d="M21.977,10.483c-1.499-2.299-0.852-5.371,1.447-6.862c2.299-1.491,5.378-0.837,6.877,1.462   s0.851,5.371-1.447,6.863C26.555,13.437,23.476,12.782,21.977,10.483L21.977,10.483z"
   id="path2053"
   style="fill:#03f;fill-opacity:1" />
	<path
   fill="#034EA2"
   d="M44.183,19.267c-1.838-2.82-1.043-6.589,1.775-8.419s6.594-1.027,8.433,1.792   c1.838,2.82,1.043,6.59-1.775,8.419C49.797,22.889,46.022,22.086,44.183,19.267L44.183,19.267z"
   id="path2055"
   style="fill:#03f;fill-opacity:1" />
	<path
   fill="#034EA2"
   d="M186.95,179.878c-7.728,0.693-14.541-4.994-15.217-12.704c-0.677-7.71,5.04-14.521,12.768-15.216   c7.729-0.692,14.541,4.995,15.218,12.705C200.395,172.372,194.678,179.185,186.95,179.878L186.95,179.878z"
   id="path2057"
   style="fill:#03f;fill-opacity:1" />
	<path
   fill="#034EA2"
   d="M196.777,224.965c-6.309,0.565-11.87-4.079-12.422-10.374s4.115-11.855,10.424-12.421   c6.308-0.565,11.869,4.079,12.421,10.374C207.753,218.838,203.086,224.399,196.777,224.965L196.777,224.965z"
   id="path2059"
   style="fill:#03f;fill-opacity:1" />
	<path
   fill="#034EA2"
   d="M196.831,267.187c-5.194,0.467-9.773-3.355-10.229-8.536c-0.454-5.181,3.388-9.759,8.582-10.226   s9.774,3.354,10.229,8.535C205.868,262.141,202.026,266.72,196.831,267.187L196.831,267.187z"
   id="path2061"
   style="fill:#03f;fill-opacity:1" />
	<path
   fill="#034EA2"
   d="M189.615,303.199c-3.925,0.352-7.384-2.537-7.728-6.453s2.558-7.375,6.482-7.727   c3.924-0.352,7.384,2.538,7.728,6.453C196.441,299.389,193.539,302.848,189.615,303.199L189.615,303.199z"
   id="path2063"
   style="fill:#03f;fill-opacity:1" />
	<path
   fill="#034EA2"
   d="M170.231,89.982h3.763v-17.38c0-0.898,0.103-1.813,0.292-2.582c0.641-2.626,2.403-5.234,4.805-5.234   c2.912,0,4.405,3.303,4.405,7.895v17.302h3.763V72.135c0-0.933,0.131-1.873,0.315-2.63c0.68-2.532,2.376-4.719,4.586-4.719   c3.086,0,4.6,3.306,4.6,8.891v16.306h3.763V73.006c0-10.028-4.167-12.51-6.997-12.51c-1.999,0-3.381,0.715-4.664,2.025   c-0.877,0.868-1.713,2.114-2.391,3.755h-0.088c-0.908-3.4-3.103-5.78-5.975-5.78c-3.535,0-5.512,2.555-6.691,5.297h-0.107   l-0.203-4.641h-3.35c0.103,2.389,0.175,4.778,0.175,7.786V89.982L170.231,89.982z"
   id="path2065"
   style="fill:#ff8c00;fill-opacity:1" />
	<path
   fill-rule="evenodd"
   clip-rule="evenodd"
   fill="#034EA2"
   d="M211.16,101.787h3.832v-15.69h0.088   c1.263,2.864,3.699,4.542,6.533,4.542c4.965,0,9.638-5.121,9.638-15.513c0-8.751-3.866-14.63-8.998-14.63   c-3.444,0-5.981,2.053-7.523,5.569h-0.088l-0.213-4.913h-3.444c0.104,2.721,0.176,5.716,0.176,9.391V101.787L211.16,101.787z    M214.992,73.262c0-0.689,0.121-1.454,0.247-2.13c0.73-3.941,3.208-6.47,5.832-6.47c4.08,0,6.296,4.947,6.296,10.7   c0,6.608-2.357,11.168-6.445,11.168c-2.734,0-5.07-2.484-5.764-6.149c-0.11-0.672-0.166-1.393-0.166-2.132V73.262L214.992,73.262z"
   id="path2067"
   style="fill:#ff8c00;fill-opacity:1" />
	<path
   fill-rule="evenodd"
   clip-rule="evenodd"
   fill="#034EA2"
   d="M244.331,89.982v-28.83h-3.835v28.83H244.331L244.331,89.982z    M242.395,55.823c1.538,0,2.497-1.524,2.494-3.38c-0.01-1.89-0.979-3.37-2.468-3.37c-1.462,0-2.486,1.512-2.482,3.37   c-0.004,1.855,0.968,3.38,2.412,3.38H242.395L242.395,55.823z"
   id="path2069"
   style="fill:#ff8c00;fill-opacity:1" />
	<path
   fill-rule="evenodd"
   clip-rule="evenodd"
   fill="#034EA2"
   d="M254.814,101.787h5.394V86.764h0.087   c1.09,2.35,3.314,3.875,5.999,3.875c4.858,0,9.702-5.049,9.702-15.576c0-9.06-4.061-14.758-8.951-14.758   c-3.262,0-5.746,1.837-7.314,5.113h-0.088l-0.265-4.458h-4.738c0.097,2.729,0.175,5.855,0.175,9.62V101.787L254.814,101.787z    M260.208,73.37c0-0.613,0.083-1.262,0.194-1.851c0.551-3.229,2.599-5.434,4.817-5.434c3.469,0,5.306,4.175,5.306,9.316   c0,5.696-2.009,9.565-5.432,9.565c-2.29,0-4.188-2.149-4.737-5.134c-0.102-0.62-0.148-1.294-0.148-2.001V73.37L260.208,73.37z"
   id="path2071"
   style="fill:#03f;fill-opacity:1" />
	<path
   fill="#034EA2"
   d="M290.203,47.655h-5.393v42.327h5.393v-9.885l1.817-2.943l6.133,12.828h6.62l-9.026-17.176l7.912-11.847   h-6.481l-5.204,9.32c-0.559,1.041-1.176,2.274-1.684,3.408h-0.087V47.655L290.203,47.655z"
   id="path2073"
   style="fill:#03f;fill-opacity:1" />
	<path
   fill="#034EA2"
   d="M310.16,88.575c1.57,1.192,3.918,2.033,6.501,2.033c5.634,0,8.665-3.817,8.665-9.11   c-0.019-4.278-1.811-6.972-5.693-8.84c-2.696-1.338-3.726-2.223-3.726-4.064c0-1.786,1.069-3.074,2.988-3.074   c1.889,0,3.615,0.978,4.513,1.67l1.07-5.151c-1.252-0.936-3.309-1.733-5.659-1.733c-4.979,0-8.098,3.978-8.098,9.081   c-0.019,3.438,1.722,6.53,5.897,8.476c2.624,1.269,3.504,2.266,3.504,4.231c0,1.903-1.06,3.258-3.434,3.258   c-1.932,0-4.253-1.115-5.444-2.118L310.16,88.575L310.16,88.575z"
   id="path2075"
   style="fill:#03f;fill-opacity:1" />
</g>
</svg>